<svg xmlns="http://www.w3.org/2000/svg" xmlns:xlink="http://www.w3.org/1999/xlink" viewBox="0 0 512 256"><defs><style>.cls-1{isolation:isolate;}.cls-2{fill:#29abe2;}.cls-16,.cls-3{fill:#fff;}.cls-4{fill:url(#linear-gradient);}.cls-5{fill:url(#linear-gradient-2);}.cls-6{fill:url(#linear-gradient-3);}.cls-7{fill:url(#linear-gradient-4);}.cls-8{fill:url(#linear-gradient-5);}.cls-9{fill:url(#linear-gradient-6);}.cls-10{fill:url(#linear-gradient-7);}.cls-11{fill:url(#linear-gradient-8);}.cls-12{fill:#fa4;}.cls-13{fill:none;stroke:#000;stroke-linecap:round;stroke-linejoin:round;stroke-width:0.5px;opacity:0.26;}.cls-14{opacity:0.1;}.cls-15,.cls-16{mix-blend-mode:soft-light;}</style><linearGradient id="linear-gradient" x1="46.67" y1="186.16" x2="46.67" y2="155.39" gradientUnits="userSpaceOnUse"><stop offset="0" stop-color="#29abe2"/><stop offset="0.07" stop-color="#47b7e6"/><stop offset="0.19" stop-color="#77caed"/><stop offset="0.32" stop-color="#a1daf2"/><stop offset="0.45" stop-color="#c3e7f7"/><stop offset="0.58" stop-color="#ddf2fa"/><stop offset="0.71" stop-color="#f0f9fd"/><stop offset="0.85" stop-color="#fbfeff"/><stop offset="1" stop-color="#fff"/></linearGradient><linearGradient id="linear-gradient-2" x1="147.93" y1="186" x2="147.93" y2="155.39" xlink:href="#linear-gradient"/><linearGradient id="linear-gradient-3" x1="211.49" y1="184.78" x2="211.49" y2="155.39" xlink:href="#linear-gradient"/><linearGradient id="linear-gradient-4" x1="265.22" y1="185.07" x2="265.22" y2="155.39" xlink:href="#linear-gradient"/><linearGradient id="linear-gradient-5" x1="322.14" y1="184.65" x2="322.14" y2="155.39" xlink:href="#linear-gradient"/><linearGradient id="linear-gradient-6" x1="368.78" y1="184.28" x2="368.78" y2="155.39" xlink:href="#linear-gradient"/><linearGradient id="linear-gradient-7" x1="400.71" y1="184.47" x2="400.71" y2="155.39" xlink:href="#linear-gradient"/><linearGradient id="linear-gradient-8" x1="460.52" y1="184.56" x2="460.52" y2="155.39" xlink:href="#linear-gradient"/></defs><title>Artboard 1</title><g class="cls-1"><g id="GoelandLogo"><g id="Title"><path class="cls-2" d="M147.93,207A49.49,49.49,0,0,1,121,199.33,18.78,18.78,0,0,1,107.37,205c-2.22,0-4.45-.29-11.13-1.91l-2.58-.64A85.71,85.71,0,0,1,67,206.91c-18.12,0-33.32-6.26-45.18-18.6-11.59-12-17.47-27.18-17.47-45.1,0-3.27.35-32.61,18.45-48,4.5-3.83,9.59-7.83,13.47-10.81a29.47,29.47,0,0,1,1-5.26L18.88,52.5A14,14,0,0,1,30.41,30.55a13.8,13.8,0,0,1,5.83,1.28l18.4,8.43a14,14,0,0,1,19-1.18L89.22,51.83c8.94,1.15,23.92,5.37,33.63,20.32a83.68,83.68,0,0,0,19.64,3.74c12.32.6,16,.64,16.78.64h.61c4.55.06,14,3.09,21.69,11.19a41.9,41.9,0,0,1,10,18.5c2.16,0,4.85.08,8.14.17,4.41.12,7.73.18,9.87.18s5.37-.06,9.74-.18c4.76-.13,8.25-.19,10.67-.19a21,21,0,0,1,7,1.17,19,19,0,0,1,6.32-1.08c1.24,0,2.83.06,5,.17s3,.11,3.25.11,1.33,0,3.62-.14,4.11-.18,5.47-.18a17.44,17.44,0,0,1,12.78,5.45A17.76,17.76,0,0,1,278.28,125c0,.08-.07,1-.07,1-.35,5.54-.76,14.09-1.21,25.36l0,4.77c2.09-.09,3.95-.17,5.6-.21q.71-2,1.5-4.08c10.14-27.43,11.83-32.29,12.09-33.1,3.17-10,11.12-13.6,17.5-13.6,1.36,0,3.07.09,5.37.3,1.78.15,2.42.16,2.43.16s.78,0,2.54-.12c2.05-.14,3.57-.2,4.78-.2a18.55,18.55,0,0,1,16.39,10.08c3-4.94,8.45-8.64,16.17-8.64.85,0,2.37,0,4.85-.28.24,0,.9-.14,2.33-.41a38.4,38.4,0,0,1,6.79-.71c5.71,0,10.83,2.68,14.84,7.76a17.77,17.77,0,0,1,13.68-6.36c1.13,0,3.37,0,7.7-.22,4-.17,7-.25,9.1-.25a17.6,17.6,0,0,1,5.95,1,20.91,20.91,0,0,1,2.76-.59l.32,0a119.44,119.44,0,0,1,12.81-.49c10.33,0,16.74.16,20.19.5,10.31,1,18.86,4,25.43,8.66a45,45,0,0,1,14.83,18.53,52.63,52.63,0,0,1-8.22,56.45c-8.21,9.48-20,14.75-34,15.21-1.28,0-4.26.1-15.36.1-1.7,0-4.11-.05-7.36-.15-3.58-.11-5.42-.13-6.32-.13a18.87,18.87,0,0,1-6.21-1,18.69,18.69,0,0,1-6.18,1c-.3,0-1.05,0-2.66.08-1.78.07-3.08.11-4.06.11-1.26,0-2.82-.08-4.92-.24-1.75-.13-2.3-.13-2.32-.13a18.68,18.68,0,0,1-14.25-6.68,18.06,18.06,0,0,1-14.23,6.86H360.8a18.28,18.28,0,0,1-3.67-.37c-2.22.5-5,.74-12.2.74-6.87,0-9.68-.27-11.79-.68a19.7,19.7,0,0,1-11.55-7.09,17.91,17.91,0,0,1-10.12,6.86l-.26.07c-2.43.57-5.23.84-14.57.84a53.77,53.77,0,0,1-6.09-.26,23.41,23.41,0,0,1-6.34.68c-2.78,0-6.44-.06-10.88-.19l-10.28-.23-13.44-.18h-.79c-1.67,0-3.72-.08-6.25-.23h-.23c-.47,0-.94-.09-1.4-.16l-.17,0c-.69-.12-1.38-.28-2.06-.47a18.8,18.8,0,0,1-7.1,1.4,26.69,26.69,0,0,1-3.8-.31s-2.73-.3-17.35-.3q-3.61,0-10.73,0t-10.47-.05a18.53,18.53,0,0,1-13.94-6.18A49.73,49.73,0,0,1,147.93,207Z"/><path id="Black_offset" data-name="Black offset" d="M499.29,135.44a41.22,41.22,0,0,0-13.52-16.92c-6-4.29-13.89-7-23.5-7.93-3.31-.33-9.6-.48-19.79-.48a119.05,119.05,0,0,0-12.34.46l-.24,0a15.39,15.39,0,0,0-3.44.9,13.6,13.6,0,0,0-5.82-1.3c-2.05,0-5,.08-8.94.24-4.39.19-6.7.23-7.86.23a13.85,13.85,0,0,0-13.24,9.72l-3.09-4.24c-3.36-4.56-7.46-6.88-12.19-6.88a34.06,34.06,0,0,0-6.06.64c-1.76.33-2.44.43-2.59.45-2.69.25-4.38.31-5.32.31-9.61,0-14.81,7.22-14.81,14,0,1.19,0,2.59,0,4.17-2.7-6.8-3.81-9.34-4.42-10.64l-.06-.13c-2.68-5.55-7.66-8.86-13.32-8.86-1.12,0-2.55.06-4.51.19-1.79.12-2.57.13-2.82.13-.07,0-.79,0-2.77-.18-2.18-.19-3.78-.28-5-.28-5,0-11.17,2.85-13.69,10.82-.33,1-2.34,6.72-12.15,33.26l-2.44,6.63c-2.89,0-6.69.19-11.59.45l-.84,0,0-9.07c.45-11.32.86-19.92,1.22-25.56,0,0,.06-.8.06-.88a13.79,13.79,0,0,0-3.74-10.32,13.51,13.51,0,0,0-9.89-4.21c-1.29,0-2.95.06-5.25.18s-3.4.14-3.84.14-1.34,0-3.46-.12-3.63-.16-4.8-.16a14.92,14.92,0,0,0-6.31,1.39,16.94,16.94,0,0,0-7-1.48c-2.38,0-5.83.06-10.56.19-4.4.12-7.71.18-9.85.18s-5.54-.06-10-.18c-4.78-.13-8.27-.19-10.67-.19-.19,0-.37,0-.56,0a38.63,38.63,0,0,0-9.7-19.76c-6.79-7.15-15.12-9.89-18.77-9.94h-.63c-.84,0-4.56,0-17-.65a88.8,88.8,0,0,1-22.06-4.36c-9.23-15.3-24.53-19-32.65-19.86L71.11,42.17a10,10,0,0,0-15.18,3.08L34.58,35.46a10,10,0,0,0-12.4,14.77L41.67,78.51a26.2,26.2,0,0,0-1.58,8C36,89.64,30.3,94.06,25.36,98.27c-16.72,14.2-17.06,41.88-17,44.94,0,16.85,5.51,31.09,16.36,42.33C35.75,197.06,50,202.91,67,202.91a82,82,0,0,0,26.54-4.67c1.06.28,2.28.58,3.67.92,6.25,1.52,8.34,1.8,10.19,1.8a14.78,14.78,0,0,0,11-4.65,13.83,13.83,0,0,0,1.82-2.44,46.88,46.88,0,0,0,56.1-.38,14.4,14.4,0,0,0,13,7.79c2.33,0,5.82,0,10.49.05s8.31,0,10.71,0c14.55,0,17.54.29,17.91.34a23.67,23.67,0,0,0,3.24.27,14.64,14.64,0,0,0,6.86-1.7,15.12,15.12,0,0,0,2.95.82l.17,0c.33.06.66.09,1,.12h.22c2.46.15,4.42.22,6,.22h.78l13.54.18,10.31.23c4.38.13,8,.19,10.76.19a17.78,17.78,0,0,0,6-.76,44.58,44.58,0,0,0,6.43.34c8.9,0,11.57-.24,13.63-.73l.2,0c4.58-1.18,7.95-4.25,10-9.14h2.06A15.5,15.5,0,0,0,333.91,201c1.62.32,4.09.61,11,.61,7.56,0,10-.27,12-.82l.12,0h0a14.7,14.7,0,0,0,3.72.49h16.05a14.11,14.11,0,0,0,13.62-10.22l2.49,3.35c4.19,5.53,9,6.69,12.37,6.69.16,0,.83,0,2.62.14,2,.16,3.46.23,4.62.23.93,0,2.17,0,3.9-.11s2.5-.08,2.82-.08a14.49,14.49,0,0,0,6.17-1.36,14.71,14.71,0,0,0,6.22,1.36c.94,0,2.82,0,6.44.13,3.21.1,5.57.15,7.24.15,11,0,14-.06,15.23-.1,12.88-.42,23.65-5.23,31.11-13.85a48.65,48.65,0,0,0,7.59-52.17Z"/><g id="Blue_offset" data-name="Blue offset"><path class="cls-2" d="M67,192.91c-14.16,0-26-4.82-35.08-14.3-9-9.32-13.57-21.23-13.57-35.4,0-1,0-25.85,13.51-37.33,6.84-5.8,15.13-12.06,18.53-14.6-.51-3.09-.77-8.88,3-13.35l-23-33.38L66.14,60.93l-1.36-11L83.72,65.42c4.61.1,21.64,1.62,29.56,18.26,3.63,1.36,15.81,5.57,28.53,6.19,12.3.6,16.31.66,17.46.66h.49c.77,0,20.55,4.43,19.47,31.66L177.34,131l-4-8,0,.11c0-.06-2.1-5.9-16.88-7.29-4.72-.44-10.09-.91-15.44-1.37-15.91-1.38-23.5-2.11-27.3-2.67a14.41,14.41,0,0,1-7.25,7.58,63.14,63.14,0,0,1-11.16,4.44l-.23.06-.24,0c-1.4.14-3.26.22-5.43.31-7.49.32-18.81.8-25.7,4.54-6.45,3.5-12.84,7.52-14,14.75-1.3,7.78,4.48,13.93,4.73,14.18,3.41,3.56,8.25,5.44,14,5.44A35,35,0,0,0,80,160.78q-.31-2.9-.94-8.6a95.06,95.06,0,0,1-.86-11.24,4.27,4.27,0,0,1,2.85-4.33,6,6,0,0,1,2-.29c1.36,0,3.31.12,6,.37,2.43.22,4.27.34,5.47.34s3.34-.1,6-.28c2.87-.21,5-.3,6.45-.3,2.3,0,4.62,1.59,4.62,5.14,0,2.14-.12,5.28-.36,9.59-.23,4.11-.35,7.22-.35,9.24,0,5.49.41,13.85,1.22,24.85l.06.66a4.56,4.56,0,0,1-1.13,3.59,4.83,4.83,0,0,1-3.67,1.44c-.83,0-2.35-.19-7.82-1.52-3.52-.85-5.39-1.36-6.45-1.68A73.8,73.8,0,0,1,67,192.91Z"/><path class="cls-2" d="M147.93,193c-10.37,0-19.11-3.69-26-11-6.7-7.07-10.1-15.89-10.1-26.23s3.4-19.22,10.1-26.32c6.86-7.3,15.61-11,26-11a34.37,34.37,0,0,1,25.93,11A37.19,37.19,0,0,1,184,155.81c0,10.4-3.38,19.25-10.05,26.32C167.11,189.34,158.35,193,147.93,193Zm0-51.21a11.13,11.13,0,0,0-8.81,4.24,15.39,15.39,0,0,0-.3,19.64,11.47,11.47,0,0,0,9.11,3.93,11.32,11.32,0,0,0,8.87-4.21,14.13,14.13,0,0,0,3.62-9.67,14.41,14.41,0,0,0-3.49-9.87A11.27,11.27,0,0,0,147.93,141.79Z"/><path class="cls-2" d="M231.61,192a12.92,12.92,0,0,1-1.82-.17c-1.43-.2-6-.44-19.33-.44q-3.59,0-10.65,0t-10.55-.05a4.24,4.24,0,0,1-4.53-4.34c0-3.52.19-8.82.58-15.78s.58-12,.58-15.44-.19-10.06-.56-19.6c-.09-2.43-.26-6.15-.51-11.05l0-.59a3.88,3.88,0,0,1,1-3,4.11,4.11,0,0,1,3.17-1.29c2.32,0,5.72.06,10.41.19,4.53.12,8,.18,10.24.18s5.63-.06,10.12-.18c4.64-.13,8-.19,10.29-.19,3,0,5.18,1.57,5.72,4.21.12.55.32,1.85.77,6.8s.5,6.28.5,6.84a3.82,3.82,0,0,1-3.93,4l-1.18-.05c-8.16-.68-15.54-1-22-1h-.22c0,.4,0,1,0,1.72a9.38,9.38,0,0,0,.17,2,4.69,4.69,0,0,0,.78.05c.28,0,.83,0,1.65-.07s1.75-.07,2.38-.07c3.81,0,7.72-.11,11.61-.32l2.5-.22a24.87,24.87,0,0,1,2.78-.2,4,4,0,0,1,4.11,4l-.09.61c0,.21-.19,1.31-.76,6.86a70.38,70.38,0,0,0-.36,7.11c0,1.9-1.36,3.93-4.34,3.93h-.17l-4.34-.48c-1.12-.12-4.08-.26-11.73-.26h-4.19v.8a20.35,20.35,0,0,0,.16,3.06,11.29,11.29,0,0,0,3.34.58h6.68c1.54,0,3.91-.15,7-.43,3.35-.31,5.81-.45,7.53-.45,2,0,4,1.44,4,4.67a62.43,62.43,0,0,1-.82,7.76c-.84,5.88-1.4,7.2-1.86,8l0,.09A4.75,4.75,0,0,1,231.61,192Z"/><path class="cls-2" d="M284.21,192.07c-2.65,0-6.18-.06-10.48-.19l-10.37-.23-13.79-.18h-.75c-1.38,0-3.21-.07-5.42-.2h-.17l-.16,0a4.37,4.37,0,0,1-3.84-4.4c0-3.39.06-8.5.16-15.19s.17-11.76.17-15.1c0-3.51-.11-8.91-.33-16s-.32-12.59-.32-16.21a4,4,0,0,1,4.39-4c1,0,2.39,0,4.3.15s3.11.13,4,.13,2.44,0,4.38-.16,3.63-.16,4.71-.16a3.62,3.62,0,0,1,2.64,1.1,3.79,3.79,0,0,1,1,2.93l-.05.68c-.36,5.75-.78,14.52-1.24,26.05L263,163.2c0,3.17,0,5.67,0,7.46,2.71,0,6.52-.17,11.35-.43,5.67-.3,9.81-.44,12.67-.44a4,4,0,0,1,4.25,4.07A73.27,73.27,0,0,1,290,188.13a4.48,4.48,0,0,1-2.92,3.68A8.59,8.59,0,0,1,284.21,192.07Z"/><path class="cls-2" d="M344.93,191.65c-6.2,0-8.17-.24-9.11-.42a5.52,5.52,0,0,1-4.34-4.35,50.1,50.1,0,0,0-1.38-5c-1.37-.07-4.3-.14-10.59-.14-3.57,0-5.46.06-6.44.13a28.24,28.24,0,0,0-.79,2.92c-.64,2.78-1.65,5.72-4.31,6.41-1,.24-3.09.46-11.33.46-4,0-10.09,0-10.09-4.34,0-.86,0-1.74,10.67-30.68,7.52-20.37,11.66-31.71,12.29-33.69,1-3.18,2.82-3.85,4.16-3.85.93,0,2.28.08,4.13.24,2.05.18,3.12.22,3.66.22.77,0,2,0,3.49-.15,1.71-.12,3-.17,3.84-.17,1.26,0,3,.56,4.32,3.22,1.58,3.37,5.94,14.36,13.37,33.63,11.24,29.23,11.24,30.15,11.24,31a4.2,4.2,0,0,1-3.35,4C353.46,191.41,351.65,191.65,344.93,191.65Zm-25.35-31.47c1,0,2.27,0,4,0h.17c-.27-1.11-.77-2.95-1.69-5.95-.09-.26-.17-.52-.25-.77-.13.37-.26.77-.4,1.18C320.48,157.29,319.92,159,319.58,160.18Z"/><path class="cls-2" d="M412.57,191.47c-.89,0-2.14-.07-3.85-.2-1.54-.11-2.68-.17-3.39-.17-2.33,0-3.88-2-4.39-2.73-2.26-3-7.31-9.75-15-19.94-1.33-1.79-3.11-4.14-5.33-7q.07,3.92.22,9c.2,7.17.3,12.63.3,16.23a4.25,4.25,0,0,1-4.25,4.62H360.8a4.2,4.2,0,0,1-4.35-4.44c0-3.37.17-8.51.49-15.26s.49-11.73.49-15c0-3.49-.15-8.81-.44-15.83s-.45-12.48-.45-16c0-1.5,1-4,4.81-4,1.7,0,3.84-.13,6.36-.36.28,0,1.12-.14,3.39-.57a25.34,25.34,0,0,1,4.22-.47c1.82,0,3.06,1.35,4.13,2.8l17.31,23.72c1,1.41,2.4,3.27,4.13,5.56-.08-2.92-.24-6.63-.48-11.1-.36-6.55-.54-11.55-.54-14.87,0-3.72,2.5-4.71,4-4.71,1.83,0,4.61-.08,8.28-.23s6.61-.24,8.52-.24,3.88,1.39,3.88,4.44c0,3.53-.15,8.92-.45,16s-.43,12.3-.43,15.81V187a4.12,4.12,0,0,1-4.35,4.25c-.71,0-1.8,0-3.24.09S413.35,191.47,412.57,191.47Z"/><path class="cls-2" d="M445.36,191.56c-1.56,0-3.89-.05-6.93-.14s-5.3-.14-6.75-.14a4,4,0,0,1-4.35-4.06c0-3.45.13-8.64.4-15.45s.39-11.9.39-15.22-.13-8.8-.39-15.87-.4-12.48-.4-16a4.15,4.15,0,0,1,3.94-4.13,110.12,110.12,0,0,1,11.21-.4c9.72,0,15.87.14,18.81.43,7.83.79,14.1,2.85,18.66,6.11a31.3,31.3,0,0,1,10.22,12.9,38.64,38.64,0,0,1-6,41.48c-5.7,6.58-13.75,10.1-23.91,10.44C458.41,191.53,453.53,191.56,445.36,191.56Zm6.2-20.83A22.94,22.94,0,0,0,456,171c4.48,0,7.86-1.4,10.35-4.29s3.58-6.54,3.58-11.36c0-4.47-1.26-8-3.86-10.74s-6-4.21-10.35-4.21a23.38,23.38,0,0,0-4.14.28c0,1.75,0,4.07-.09,6.91-.06,3.61-.09,6.36-.09,8.18s0,4.5.09,8.05C451.52,166.68,451.55,169,451.56,170.73Z"/></g><g id="Letters_path" data-name="Letters path"><path class="cls-3" d="M174,107.4c-4.54-13.74-14.25-13.87-14.25-13.87s-2.21.11-18.06-.66c-12.06-.58-23.48-4.23-28.25-5.94-1-.34-1.63-.6-2-.75h0l-.31-.13c-6.41-14.83-20.65-17.2-26.17-17.55-1-.07-1.73-.07-2-.06a0,0,0,0,0,0,0h-.17a38.49,38.49,0,0,0-12,2c-1.14.39-2.31.85-3.5,1.39a38,38,0,0,0-9.82,6.47l0,0c-6.49,5-3.63,14.21-3.63,14.21l-.13.09c-.88.65-6.2,4.58-12.16,9.29-2.53,2-5.18,4.16-7.64,6.25-12.59,10.7-12.45,35-12.45,35A53.78,53.78,0,0,0,23,157a43.8,43.8,0,0,0,11,19.55,42.11,42.11,0,0,0,14.7,10c.79.33,1.59.63,2.41.9l0,0,.76.25c2.22.53,7.79,2.12,8.85,2.27,10.26,1.43,4.58-7.22,4.58-7.22,11.93,1.82,2.52-5.69,2.52-5.69,11.44.24,2.31-5.33,2.31-5.33,12.39-2.6-.87-5.5-.87-5.5l-4.58-.43h0a23.11,23.11,0,0,1-4.44-1,19.86,19.86,0,0,1-8.05-5.09c-.44-.46-7.06-7.58-5.52-16.76s9.89-13.81,15.57-16.89a31.86,31.86,0,0,1,8-2.87c7.91-1.84,17-1.88,22.23-2.18h0c.75-.05,1.41-.09,2-.15a59.73,59.73,0,0,0,10.57-4.21,12.73,12.73,0,0,0,4.53-3.68,9.11,9.11,0,0,0,.93-1.47,8.47,8.47,0,0,0,.92-3.14,1.23,1.23,0,0,0,0-.17v0l.11.08.19.07.36.1.27.06.68.13.39.06.91.14.51.07.55.07,1,.13,1,.12.74.08,2.66.28,1.42.15.77.07,1.52.15h0l2.41.23.84.08,3.46.31,5.46.48,3.64.32,8,.7c2.16.18,4.27.37,6.29.56l.82.08,1.16.1c.94.09,1.83.19,2.68.32l1.23.19c.81.12,1.57.27,2.29.44s1.4.33,2.05.51a26.59,26.59,0,0,1,4.89,1.86c.27.13.52.26.76.4a13.55,13.55,0,0,1,1.92,1.22c.36.27.68.53,1,.77a4.27,4.27,0,0,1,.44.41,7.89,7.89,0,0,1,2.26,3.35A51.07,51.07,0,0,0,174,107.4Z"/><path class="cls-3" d="M171.67,131.55a31.32,31.32,0,0,0-23.75-10.07q-14.32,0-23.79,10.07-9.28,9.84-9.28,24.26T124.13,180q9.47,10,23.79,10t23.85-9.93q9.22-9.78,9.23-24.26T171.67,131.55Zm-12.61,35.81a15,15,0,0,1-22.5.28,18.4,18.4,0,0,1,.28-23.57,14.63,14.63,0,0,1,22.35-.18,17.42,17.42,0,0,1,4.23,11.83A17.22,17.22,0,0,1,159.06,167.36Z"/><path class="cls-3" d="M234.39,172.19c-1.61,0-4,.14-7.26.44s-5.67.44-7.31.44h-6.77q-5.15-.33-5.94-2.09a13.69,13.69,0,0,1-.46-4.55c0-1.76,0-2.72,0-2.87.22-.62,1-.93,2.23-.93h4.92q9.42,0,12.06.28l4.17.46q1.35,0,1.35-.93a73.88,73.88,0,0,1,.37-7.42c.5-4.81.78-7.2.83-7.2,0-.64-.41-1-1.11-1a23.19,23.19,0,0,0-2.5.18l-2.55.24q-6,.32-11.83.32c-.59,0-1.33,0-2.23.07s-1.5.07-1.81.07a4,4,0,0,1-3-.88c-.62-.68-.93-2.07-.93-4.18a14.84,14.84,0,0,1,.23-3.57c.37-.77,1.38-1.16,3-1.16q9.82,0,22.17,1l1,.05c.62,0,.93-.33.93-1s-.16-3-.49-6.56-.56-5.76-.72-6.47c-.24-1.21-1.17-1.81-2.78-1.81q-3.39,0-10.2.19t-10.21.18q-3.44,0-10.32-.18t-10.32-.19c-.84,0-1.22.36-1.16,1.07l0,.65c.24,4.91.41,8.61.51,11.08q.55,14.43.55,19.72t-.58,15.61q-.57,10.41-.58,15.61c0,.89.51,1.34,1.53,1.34q3.52,0,10.58.05t10.62,0q16.38,0,19.76.47a12.11,12.11,0,0,0,1.39.14,1.76,1.76,0,0,0,1.54-.88c.43-.75.92-3,1.48-6.92a59.5,59.5,0,0,0,.79-7.32C235.41,172.74,235.07,172.19,234.39,172.19Z"/><path class="cls-3" d="M287,172.79q-4.17,0-12.5.44t-12.5.44h-1.21a.76.76,0,0,1-.69-.7c0-.37-.07-.74-.1-1.11,0-1.82,0-4.72,0-8.67l0-12.25q.7-17.49,1.26-26.21l0-.6c0-.59-.18-.88-.65-.88-1,0-2.53,0-4.54.16s-3.53.16-4.55.16-2.26,0-4.1-.14-3.23-.14-4.16-.14-1.39.34-1.39,1q0,5.38.33,16.12t.32,16.12q0,5.05-.16,15.15t-.16,15.14a1.37,1.37,0,0,0,1.34,1.44c2.6.16,4.59.22,6,.19l13.87.18,10.39.23c4.26.13,7.73.19,10.39.19a9.92,9.92,0,0,0,1.9-.09c.49-.16.82-.64,1-1.44a69.68,69.68,0,0,0,1.16-13.68C288.24,173.14,287.83,172.79,287,172.79Z"/><path class="cls-3" d="M343.68,157.16q-11-28.53-13.27-33.4-.75-1.53-1.62-1.53c-.81,0-2,0-3.65.16s-2.85.16-3.68.16-2.18-.08-3.92-.23-3-.23-3.88-.23c-.49,0-.92.59-1.3,1.76q-1,3.06-12.33,33.82-10.48,28.43-10.49,29.64t7.1,1.34q9,0,10.57-.37c.84-.21,1.55-1.61,2.14-4.17.65-2.82,1.24-4.47,1.76-5q.51-.4,8.4-.41,11.69,0,12.43.32t2.46,7.14a2.49,2.49,0,0,0,2,2.09,58.29,58.29,0,0,0,8.54.37q7.23,0,8.63-.37c.77-.21,1.15-.6,1.15-1.16Q354.71,185.88,343.68,157.16Zm-16.75,5.33c-.22.5-1.35.74-3.39.74-2.19,0-3.77,0-4.73-.09-1.85-.06-2.78-.37-2.78-.93q0-1.25,2.5-8.49,2.33-6.81,3.3-8.86a65.93,65.93,0,0,1,3.06,8.54q2.13,6.91,2.13,8.44A1.84,1.84,0,0,1,326.93,162.49Z"/><path class="cls-3" d="M420.63,123.2q-2.78,0-8.39.23c-3.75.16-6.54.23-8.4.23-.65,0-1,.58-1,1.72q0,4.92.53,14.71t.53,14.65c0,2.42-.2,3.62-.6,3.62-.56,0-1.22-.48-2-1.44q-4.68-6.16-7-9.37L377,123.85c-.78-1-1.35-1.58-1.72-1.58a21.68,21.68,0,0,0-3.66.42c-1.83.34-3,.54-3.67.6q-3.94.38-6.63.37c-1.21,0-1.81.35-1.81,1q0,5.3.44,15.92t.44,16q0,5.05-.49,15.17t-.48,15.12c0,1,.45,1.44,1.34,1.44h16c.84,0,1.25-.54,1.25-1.62q0-5.39-.3-16.14t-.3-16.15a1.32,1.32,0,0,1,.37-1,2,2,0,0,1,.7.56q6.54,8.4,9.74,12.71,11.68,15.45,15,19.94c.77,1,1.44,1.54,2,1.54.81,0,2,.06,3.62.18s2.82.19,3.62.19,1.86,0,3.36-.1,2.62-.09,3.37-.09,1.34-.42,1.34-1.25V156.46q0-5.34.44-15.93t.44-15.89C421.51,123.68,421.22,123.2,420.63,123.2Z"/><path class="cls-3" d="M487.43,140.78a28.25,28.25,0,0,0-9.23-11.69Q472,124.64,461,123.53q-4.23-.42-18.51-.42-7.51,0-10.81.37c-.9.12-1.34.51-1.34,1.16,0,3.52.13,8.84.39,15.93s.4,12.43.4,16q0,5.1-.4,15.33t-.39,15.33c0,.72.44,1.07,1.34,1.07q2.28,0,6.84.14t6.85.14q12.11,0,14.79-.09,14-.47,21.76-9.42a35.61,35.61,0,0,0,5.52-38.27ZM468.6,168.71Q464,174,456,174q-7.43,0-7.42-2,0-2.75-.1-8.14t-.09-8.1c0-1.82,0-4.57.09-8.23s.1-6.41.1-8.24c0-1.26,2.38-1.9,7.14-1.9q7.79,0,12.52,5.15,4.69,5,4.69,12.8Q472.91,163.66,468.6,168.71Z"/></g><g id="InnerBlueShadow"><path class="cls-4" d="M66.53,173.33a4,4,0,0,0-2.19,5.59A4,4,0,0,0,62,185a7.67,7.67,0,0,1,.6,1.18q-.57,0-1.29-.12c-.51-.09-2.89-.73-4.47-1.15l-3.81-1-.47-.15-.18-.06a38.43,38.43,0,0,1-15.5-9.91,39.7,39.7,0,0,1-10.2-18.37H44.66a26.8,26.8,0,0,0,4.68,7.08A23.86,23.86,0,0,0,59,168.59a27.45,27.45,0,0,0,5.1,1.18l.3,0,2.22.21a3.86,3.86,0,0,0-.34,1.06A4.09,4.09,0,0,0,66.53,173.33Z"/><path class="cls-5" d="M177,155.39h-9.58c0,.11,0,.22,0,.33A21.25,21.25,0,0,1,162.07,170a19,19,0,0,1-28.53.27,21.37,21.37,0,0,1-5.11-14.46c0-.14,0-.28,0-.42h-9.58c0,.14,0,.28,0,.42,0,8.6,2.68,15.61,8.19,21.42s12.4,8.77,20.88,8.77,15.41-2.84,20.94-8.67S177,164.48,177,155.81C177,155.67,177,155.53,177,155.39Z"/><path class="cls-6" d="M231.23,176.31c-.11,1-.29,2.42-.57,4.28s-.52,3.33-.7,4.19c-1.66-.16-6-.41-19.51-.41-2.37,0-5.91,0-10.59,0l-8.11-.05c.07-3.15.25-7.35.54-12.73.39-6.93.59-12.25.59-15.83v-.33h34.86c-.11,1.21-.19,2.44-.25,3.67l-1.15-.13c-1.93-.2-5.9-.3-12.5-.3h-4.92c-4.26,0-5.62,2.51-6,3.59a3.56,3.56,0,0,0-.15.56,18.23,18.23,0,0,0-.12,3.65c0,3.13.24,4.93.82,6.21,1.6,3.53,6.09,4.21,9.32,4.42h7c1.74,0,4.25-.15,7.67-.46C229,176.47,230.22,176.38,231.23,176.31Z"/><path class="cls-7" d="M284.2,176.83a64.29,64.29,0,0,1-.74,8.24c-2.58,0-5.78-.07-9.52-.19l-10.42-.23-14-.18h-.65c-.73,0-1.6,0-2.59-.07,0-3.31.07-7.61.15-12.64.1-6.41.16-11.68.16-15.22,0-.37,0-.75,0-1.16H256c0,3.52,0,7.79,0,7.79,0,4.36,0,7.06,0,8.75,0,.08,0,.16,0,.25,0,.39.07.79.11,1.19a4.73,4.73,0,0,0,3.85,4.22,4.56,4.56,0,0,0,.82.08H262c2.82,0,7-.15,12.71-.45C278.61,177,281.75,176.89,284.2,176.83Z"/><path class="cls-8" d="M340,158.6c-.42-1.11-.84-2.17-1.23-3.21h-9.06c1.24,4.31,1.36,5.6,1.36,6.45a5.52,5.52,0,0,1-.38,2.14.61.61,0,0,1-.05.12c-1.37,3.13-5.21,3.13-7,3.13-2.25,0-3.86,0-4.92-.09-5.73-.21-6.59-3.18-6.59-4.93,0-.86.15-2.08,1.71-6.82h-8.61l-1.35,3.66c-5.38,14.58-8,21.92-9.24,25.56.58,0,1.28,0,2.1,0,4.79,0,7.24-.08,8.47-.15.1-.31.21-.73.34-1.29,1-4.47,1.87-6,2.89-7l.28-.25c1.19-.95,2.06-1.28,10.89-1.28,12.54,0,13.07.23,14,.66l.25.12c1.88,1,2.84,3,4.3,9,1,.09,3,.18,6.83.18,2.13,0,3.68,0,4.8-.06C348.47,181,345.75,173.7,340,158.6Z"/><path class="cls-9" d="M373.79,170.63c.16,5.65.26,10.23.29,13.65h-10.6c0-3.12.2-7.27.44-12.37.33-6.7.5-11.87.5-15.36,0-.37,0-.76,0-1.16h9.08C373.51,159,373.61,164.1,373.79,170.63Z"/><path class="cls-10" d="M416.64,155.39c0,.37,0,.73,0,1.07v27.88l-.87,0c-1.72.08-2.69.1-3.2.1-.82,0-2.29-.1-3.32-.18s-2-.13-2.74-.16c-2.38-3.2-7.71-10.27-15-19.92-1.54-2.08-3.71-4.93-6.71-8.82h10.38l3,4,.09.1c.58.72,2.37,2.92,5.1,2.92,4.21,0,4.57-4.46,4.59-7Z"/><path class="cls-11" d="M476.91,155.39c0,6.46-1.77,11.81-5.28,15.94-3.86,4.45-9.12,6.71-15.65,6.71-3.42,0-11.42,0-11.42-6,0-2,0-4.75-.1-8.07-.06-3.69-.09-6.36-.09-8.17v-.42h-9.26c0,.41,0,.79,0,1.16,0,3.34-.13,8.26-.4,15.48-.19,5-.32,9.13-.36,12.28l4.27.11c3.21.1,5.35.14,6.73.14,8,0,12.91,0,14.66-.09,8.25-.27,14.42-2.9,18.88-8.05a30.68,30.68,0,0,0,7.78-21Z"/></g></g><g id="Beak"><path class="cls-12" d="M176.27,122.28a4.29,4.29,0,0,0-.19-.52h0c-.78-1.79-4.45-7.56-19.31-9-17.63-1.65-44.3-3.64-45.29-4.63,0,0,0,.07,0,.19-2.93-.59-6.35-1.5-8.37-4.34a10.77,10.77,0,0,1-1.76-6.43c0-8.29,5.91-10.75,10-11.43,2.28.89,15.83,6,30.29,6.7,15.87.77,18.08.66,18.08.66S175.61,93.74,176.27,122.28Z"/><path class="cls-13" d="M106.49,97.68s5.49,5.78,34.08,4.76C153,102,170.82,104.32,174.83,116"/></g><g id="SeagullShadows"><path class="cls-14" d="M109.64,113a12.73,12.73,0,0,1-4.53,3.68,59.73,59.73,0,0,1-10.57,4.21c-.57.06-1.23.1-2,.15h0c-.61-.15-1.23-.29-1.84-.4-1.76-.31-5.52-.28-6.74-1.77a2,2,0,0,1,.11-2.32,5.16,5.16,0,0,1,2-1.44c5.6-2.66,11.86-3.6,18-4a8.85,8.85,0,0,1,3.63.29A3.46,3.46,0,0,1,109.64,113Z"/><path class="cls-14" d="M49.77,185.12a3.74,3.74,0,0,1-1,1.44,42.11,42.11,0,0,1-14.7-10A43.8,43.8,0,0,1,23,157a19.91,19.91,0,0,1,4.61,1.56h0a39.57,39.57,0,0,0,9.28,15.22,38.61,38.61,0,0,0,13.06,9A4.54,4.54,0,0,1,49.77,185.12Z"/><path class="cls-14" d="M68.26,114.22a140.15,140.15,0,0,1-17.7-6c-3-1.17-6-2.45-8.14-4.84a7,7,0,0,1-1-1.46c6-4.71,11.28-8.64,12.16-9.29a14.17,14.17,0,0,0,1.79,8.48A29.29,29.29,0,0,0,60.89,108,63.14,63.14,0,0,0,68.26,114.22Z"/><path class="cls-15" d="M176.07,121.75c-.78-1.79-4.45-7.56-19.31-9-17.63-1.65-44.3-3.64-45.29-4.63,0,0,0,.07,0,.19-2.93-.59-6.35-1.5-8.37-4.34a4,4,0,0,1,2.6-1.55c2.13-.42,4.37.72,6.39,1.24,2.43.62,4.89,1.13,7.36,1.56,5.6,1,11.26,1.51,16.92,2l12.09,1.16c8.78.84,18.08,1.88,25.06,7.28C174.59,116.59,175.65,119.45,176.07,121.75Z"/></g><path class="cls-16" d="M174,107.4c-3.2-3.26-6.53-6.45-10.64-8.37-9.11-4.24-19.79-1.39-29.8-2.23-6.22-.53-12.21-2.5-18.13-4.46-3.11-1-5.93-4.24-4-6.17h0c2.28.89,15.81,6,30.26,6.69,15.85.77,18.06.66,18.06.66S169.43,93.66,174,107.4Z"/><g id="Eyes"><path d="M98.78,78.82c-.13-.07,0-1,.72-.59s6,7.32,6,7.32.17,1.11-.77.61C104.27,85.92,98.78,78.82,98.78,78.82Z"/><path d="M103.85,78.44c-.24-.1-.25-1,.78-.71.64.21,5.05,6.23,5.05,6.23s-.07,1-.77.53S103.85,78.44,103.85,78.44Z"/><path d="M95.12,79.12a5,5,0,0,1-1-2.52A3.75,3.75,0,0,1,94.73,74c0,.92.07,1.72.16,2.57S95.1,78.2,95.12,79.12Z"/><path d="M99.25,73.29a4.92,4.92,0,0,1,2.43-.21,3.43,3.43,0,0,1,1.21.39,1.29,1.29,0,0,1,.52.47.55.55,0,0,1,0,.67c0-.46-.39-.5-.71-.6s-.72-.14-1.1-.19A12.67,12.67,0,0,1,99.25,73.29Z"/></g></g></g></svg>