<svg xmlns="http://www.w3.org/2000/svg" xmlns:xlink="http://www.w3.org/1999/xlink" viewBox="0 0 512 256"><defs><style>.cls-1{isolation:isolate;}.cls-2{fill:#004454;}.cls-3{fill:#29abe2;}.cls-17,.cls-4{fill:#fff;}.cls-5{fill:url(#linear-gradient);}.cls-6{fill:url(#linear-gradient-2);}.cls-7{fill:url(#linear-gradient-3);}.cls-8{fill:url(#linear-gradient-4);}.cls-9{fill:url(#linear-gradient-5);}.cls-10{fill:url(#linear-gradient-6);}.cls-11{fill:url(#linear-gradient-7);}.cls-12{fill:url(#linear-gradient-8);}.cls-13{fill:#fa4;}.cls-14{fill:none;stroke:#000;stroke-linecap:round;stroke-linejoin:round;stroke-width:0.45px;opacity:0.26;}.cls-15{opacity:0.1;}.cls-16,.cls-17{mix-blend-mode:soft-light;}</style><linearGradient id="linear-gradient" x1="46.96" y1="172.41" x2="46.96" y2="134.26" gradientUnits="userSpaceOnUse"><stop offset="0" stop-color="#29abe2"/><stop offset="0.07" stop-color="#47b7e6"/><stop offset="0.19" stop-color="#77caed"/><stop offset="0.32" stop-color="#a1daf2"/><stop offset="0.45" stop-color="#c3e7f7"/><stop offset="0.58" stop-color="#ddf2fa"/><stop offset="0.71" stop-color="#f0f9fd"/><stop offset="0.85" stop-color="#fbfeff"/><stop offset="1" stop-color="#fff"/></linearGradient><linearGradient id="linear-gradient-2" x1="147.29" y1="190.65" x2="147.29" y2="157.11" xlink:href="#linear-gradient"/><linearGradient id="linear-gradient-3" x1="209.18" y1="196.79" x2="209.18" y2="167.15" xlink:href="#linear-gradient"/><linearGradient id="linear-gradient-4" x1="263.98" y1="197.14" x2="263.98" y2="169.79" xlink:href="#linear-gradient"/><linearGradient id="linear-gradient-5" x1="322.33" y1="196.06" x2="322.33" y2="165.21" xlink:href="#linear-gradient"/><linearGradient id="linear-gradient-6" x1="368.71" y1="188.73" x2="368.71" y2="160.5" xlink:href="#linear-gradient"/><linearGradient id="linear-gradient-7" x1="400.3" y1="180.85" x2="400.3" y2="152.37" xlink:href="#linear-gradient"/><linearGradient id="linear-gradient-8" x1="457.06" y1="174.62" x2="457.06" y2="133.82" xlink:href="#linear-gradient"/></defs><title>Goeland-logo</title><g class="cls-1"><g id="BackgroundIsland"><path id="Island" class="cls-2" d="M286.64,127.45a67.75,67.75,0,0,1,15.68-17.88c34.39-27.35,84.14-9.94,90.21-7.71C417,80.69,449.07,74.22,474.66,85.72c17.46,7.84,27,21.81,31.12,29l-111,38.8Z"/><g id="Plamtrees"><path id="PalmtreeTrunc1" class="cls-2" d="M312.86,104.15l-2.63-4.91,1-.48-3-4.37,1.42-1-3.48-3.68,1.62-1.14Q306,87,304.29,85.4L305.38,84l-4.3-2.65,1.12-1.45-4.93-2.37,1.14-1.34-5.17-2.36,1-1.47-5.77-2.85,1.14-1.38L285,64.27l1.82-1.51-4.49-5.37,1.45-.42-2.85-5.33L288.55,50q-.14,2.93-.25,5.85l1.41-.26.48,5.63,1.23-.39c.36,1.55.73,3.1,1.09,4.64l1.23-1.18,3.18,5L298.23,68c1.06,1.8,2.11,3.61,3.16,5.41L302.82,72l2.56,5,1.16-1,2.28,5.59,1.78-.9,1.27,5.81,1.58-.5.37,5.89,1.49-.48.16,6,1.55-.33.09,5.87Z"/><path id="PalmetreeFoliage1" class="cls-2" d="M284.12,51.33c-.86.52-2,1.78-2.1,6.72a35.35,35.35,0,0,0,2.25,12.72c-4.75-2.91-7.6-7.86-7.31-12.92a13.54,13.54,0,0,1,3.45-8.07,26.69,26.69,0,0,0-8.83,33,19.2,19.2,0,0,1-7.24-20.87c3-9.66,12.92-12.42,13.5-12.57a13.35,13.35,0,0,0-18.59,16.25c-5.11-5-5.72-12.78-2.05-17.77,4.35-5.92,14.07-7.08,20.46-1.23a3.67,3.67,0,0,0-5.78,4.5c-4-4.64-4.59-10-2.69-12s8.27-1.5,13.15,3.86a13.75,13.75,0,0,1,24-10c-.95-.27-8.28-2.24-14.56,2.4a16.32,16.32,0,0,0-5.73,8.12,23,23,0,0,1,16.25-3.85c12.26,1.93,17.27,13.76,17.54,14.44-.67-1-7.84-11.19-19.76-11a22.23,22.23,0,0,0-12,3.8c4.8-5.56,12.23-6.88,16.84-4.1,5.74,3.48,7.74,13.77,1.28,21.11a21.63,21.63,0,0,0-10.35-11,20.65,20.65,0,0,0-9-2A4.14,4.14,0,0,0,284.12,51.33Z"/><path id="PalmtreeTrunc2" class="cls-2" d="M369.75,96.81l-.57-1.68.68-.19c-.19-1.12-.39-2.23-.58-3.34l1-.3c-.29-1.2-.57-2.41-.86-3.62l1.09-.14-.68-3.75,1.11-.22,0-3.73,1.22-.11c.12-1.16.25-2.31.38-3.46l1,0c.25-1.12.5-2.23.76-3.35l1.32.31c.4-1.26.8-2.51,1.19-3.76l1,.37L379,66.18l1,.34,0-2.84,1.21.13c-.13-1.23-.25-2.47-.38-3.7l.94,0c-.28-1.46-.57-2.92-.85-4.38l5.91,1-2.42,3.7,1.63.42L384,64.67l.9.36-2.24,3,.87.8-3.19,2.8.62.92-2.79,2.26.67.72-2.51,2.35.72.73-2.24,2.18.88.87c-.59.85-1.17,1.71-1.75,2.56l1,.53c-.48,1-1,2-1.46,3.08l.9.35-1.17,3.39,1.25.32-1.35,3.39.48.12-.88,1.84Z"/><path id="PalmtreeFoliage2" class="cls-2" d="M382.18,56.47a18.41,18.41,0,0,0-9.57,11.39c-4.91-3-6.61-8.48-5-11.69,1.87-3.76,8.91-5.75,14.71-1.51a13.16,13.16,0,0,0-13.75-1.15c-6.29,3.22-7,10.18-7,10.61A12.17,12.17,0,0,1,382.6,53.49,15.13,15.13,0,0,0,366.88,48a9.54,9.54,0,0,1,17.57,3.5c1.57-4,4.79-5.83,6.4-5.21s2.83,4.33,1.09,8.47a4.11,4.11,0,0,0-3.37-3.14,4.21,4.21,0,0,0-3.35,1.21c4.61-5.78,12.42-5.83,15.87-2.1,2.54,2.75,2.83,7.72.39,11.94a10.11,10.11,0,0,0-3.66-8.09A9.76,9.76,0,0,0,387,54c.53,0,7.7.7,11.2,7.09A14,14,0,0,1,397.12,76,16,16,0,0,0,388.05,58a10.09,10.09,0,0,1,1,5.5,10.26,10.26,0,0,1-2.66,5.9,12.1,12.1,0,0,1-1.92-7.12,12,12,0,0,1,1.31-4.77Z"/><path id="PlamtreeTrunc3" class="cls-2" d="M450.65,81.61l-.06-4.7,1.68.13-.13-3.73,1.53-.09L453.28,69l1.71.27q-.51-2.52-1-5l1.49.27c-.07-1.84-.15-3.69-.22-5.53l1.53.7.09-5.21,2.19.22.79-4.3,1.71.79,1-4.2,1.64,1,1.11-4.77,1.4.85c.29-1.59.57-3.17.85-4.76l5.56,3.83-3.75,2.74,1.06.56L466.66,50l1.44.81-3.8,2.61.64,1-3.16,2.28.91.82-2.34,3,1,1L459.18,65l1.17.52q-1,2.18-2,4.33l1.41.53-2.58,4,1.2.73-2.83,3.51,1.08.88L454,82.4Z"/><path id="PalmtreeFoliage3" class="cls-2" d="M468.54,40.19a21.89,21.89,0,0,0-16.75,10.73c-2.13-4.38-1.55-9.41,1.31-12.45,3.83-4.06,11.45-4.24,16.4.79a20.22,20.22,0,0,0-26.69,9.5c-1.33-7.63,2.91-15,9.59-17.34a15.29,15.29,0,0,1,16.25,4.42c-1.12-2.15-3.16-5.22-6.66-6.61-6-2.39-12.36,1.74-12.6,1.17s6.56-7,13.71-4.79c6.62,2.08,8.32,10,8.39,10.29,1.68-2.68,1.14-5.34-.09-6-.92-.48-2.4,0-3.62,1.09-.31-3.58,1.6-6.42,3.74-6.82,2.65-.48,5.06,2.94,5.73,5.53.81,3.17-.56,6.73-3.51,9.24.75-3.62,3.67-6.16,6.78-6.23,4.11-.09,6.39,4.17,6.55,4.47a8.54,8.54,0,0,1,.9,4.36A6.19,6.19,0,0,0,476.6,39.7a12.68,12.68,0,0,1,9.15,1.17c1.05.59,5.61,3.19,5.56,7.74a8.6,8.6,0,0,1-3.19,6.14,9.9,9.9,0,0,0-.82-7.31A10.29,10.29,0,0,0,477,42.68a10.12,10.12,0,0,1,4.68,18.94,12.71,12.71,0,0,0-6.58-17.28,9.93,9.93,0,0,1,2,6.87c-.52,5-5,7.49-5.35,7.69A17.19,17.19,0,0,1,470,52.18a17.67,17.67,0,0,1,2.22-9.47Z"/></g><g id="Vagrant"><path id="VagrantBody" class="cls-2" d="M416.05,72.23a11.38,11.38,0,0,1-2-4.87,3.32,3.32,0,0,1-1.23.48,1.5,1.5,0,0,1-1.05,0,1.36,1.36,0,0,1-.6-1,3.45,3.45,0,0,1,.8-.73,3.79,3.79,0,0,1,.68-.36c-.18-.86-.36-1.72-.53-2.58a3.28,3.28,0,0,0,1.62-.36c.72-.37.77-.79,1.45-1s1,.1,1.75-.13c1-.31,1.25-1.15,1.76-1.1.35,0,.82.5,1.25,2.62a1.14,1.14,0,0,0,.81,0c.34-.16.4-.45.69-.48a.66.66,0,0,1,.61.35,1,1,0,0,1-.1.91,3.44,3.44,0,0,1-1.78,1.59c.55,1.79,1.11,3.57,1.67,5.36l-.07,2.39a8.53,8.53,0,0,1,.39,1.29,9.07,9.07,0,0,1,.2,2,9.32,9.32,0,0,1-.43,2.71,4,4,0,0,1,.18.41,2.5,2.5,0,0,1,.13.62,3.5,3.5,0,0,1,0,.43,3,3,0,0,1-.26.89,3.26,3.26,0,0,1-2.86,1.28,3.84,3.84,0,0,1-2.66-1.37,12.66,12.66,0,0,1-.53-5.15,13.43,13.43,0,0,0,.09-4Z"/><path id="VagrantLeg" class="cls-2" d="M419.08,81.26c2.67-.34,5.62-3.25,6.51-4.13a1.41,1.41,0,0,1,.88-.46,1.68,1.68,0,0,1,1.2.59,35.64,35.64,0,0,1,3.6,4.91.92.92,0,0,1-.37.67c-.46.28-1.15-.18-1.47-.38a4.43,4.43,0,0,1-1.09-1.07,17.94,17.94,0,0,0-1.76-1.87A7.65,7.65,0,0,0,425,81.27c-.87,1.32-.67,2-1.3,2.77a4.22,4.22,0,0,1-4.74,1.19c-1.84-.81-2.82-3.22-2.24-3.94C417,80.83,417.69,81.44,419.08,81.26Z"/><path id="VagrantArm" class="cls-2" d="M421.12,76l4.88.86,2.54-1.2a.85.85,0,0,0,.06-.82.71.71,0,0,0-.74-.42l-2.16.75-4.21-.84Z"/><path id="Fire" class="cls-2" d="M439.73,79.53a3.58,3.58,0,0,1-6,.7,5.1,5.1,0,0,1-.78-4,7.71,7.71,0,0,1,.6-2.21l.67.71a4,4,0,0,0,1.14-1.33,4.09,4.09,0,0,0,.27-2.88A5.49,5.49,0,0,1,437,72.18a5.27,5.27,0,0,1,.47,1.29l.32-1.11a5.86,5.86,0,0,1,1,2.16,6,6,0,0,1-.05,2.81,1.74,1.74,0,0,0,.67-.53,1.65,1.65,0,0,0,.32-.91A4.07,4.07,0,0,1,439.73,79.53Z"/></g><g id="Turtle"><path class="cls-2" d="M358.17,84.82A12.05,12.05,0,0,1,355,90.93c-3,3.06-6.91,3.34-9.7,3.54-3,.22-7.14.52-10.37-2.31a10.85,10.85,0,0,1-3.31-5.78,41,41,0,0,1,5.58-1.5A69.54,69.54,0,0,1,346,84c5.17-.32,6.69-.23,8-.05A27,27,0,0,1,358.17,84.82Z"/><path class="cls-2" d="M332.88,88.85l-1.06.09a1.89,1.89,0,0,1-.34.87,2.66,2.66,0,0,1-2,.94,3,3,0,0,1-2.64-.85,1.88,1.88,0,0,1-.42-1.46,2,2,0,0,1,1.14-1.25,3.38,3.38,0,0,1,2.57-.27,3.32,3.32,0,0,1,1,.45l1.29-.22Z"/><path class="cls-2" d="M332.91,86.63l-.48-3.79a8.09,8.09,0,0,1,1.47-2.71,8.19,8.19,0,0,1,2.66-2.06,3,3,0,0,1,1.76-.55,2.65,2.65,0,0,1,1.78,1.19,7.94,7.94,0,0,1-.22,1.88A8.47,8.47,0,0,1,338,84.16l.13,1.1Z"/><path class="cls-2" d="M353.92,84.74a5.21,5.21,0,0,1,1.71-1.42,5.29,5.29,0,0,1,3.47-.43,1.07,1.07,0,0,1,.34.44,1.1,1.1,0,0,1,.08.57,2.83,2.83,0,0,1-.73.61,4.35,4.35,0,0,1-2.4.34C355.48,84.83,354.65,84.79,353.92,84.74Z"/><path class="cls-2" d="M357,85.69a2.94,2.94,0,0,0,1.37.7c.53.1.79,0,1.42.08a4,4,0,0,1,1.24.46,12.77,12.77,0,0,0,3.39,1,1.14,1.14,0,0,1,.09.87,1.17,1.17,0,0,1-.66.65,6,6,0,0,1-4.36-.37,11.46,11.46,0,0,1-3-1.73Z"/></g></g><g id="GoelandLogoCurved"><g id="Title"><path class="cls-2" d="M269.27,225.23c-2.36,0-4.33,0-7.34,0-5.55,0-8.47-.05-14.05-.16H247c-2,0-4.28-.12-7-.32h-.19c-.85-.07-1.6-.16-2.33-.28l.05-.31-.12,0-.05.26-.57-.1a29.62,29.62,0,0,1-7,.83l-1,0a37.27,37.27,0,0,1-4.7-.48c-1.22-.09-5.51-.39-17.65-1.15-3.41-.21-7.24-.49-11.39-.83s-7.6-.66-10-.88l-1-.09a29.66,29.66,0,0,1-15.15-5.78,59.05,59.05,0,0,1-18.33,2.58c-3.24,0-6.48-.16-9.51-.35l-.74,0-.72-.17c-9.07-2.16-17.9-4.6-26-10.11a28.29,28.29,0,0,1-9.22,1.51,31.81,31.81,0,0,1-6.34-.65c-3-.61-5.8-1.52-13-4.78l-.85-.39H82.34c-7.85,0-17.15-.34-26.69-2.9-19.56-5.25-37-18-46.65-34.11-9-15.11-11.48-35.31-6.35-52.72,5.88-20,18.6-35.79,34-42.33C40.13,70,43.82,68.5,47.15,67.2,44.36,59,41.62,50.74,39,42.56a21.92,21.92,0,0,1,8.14-24.47,20.15,20.15,0,0,1,17.59-2.67,20.75,20.75,0,0,1,7.75,4.5c3.91,3.57,6.37,5.79,9.56,8.58a20.22,20.22,0,0,1,10.09.08,21.19,21.19,0,0,1,11.63,8.06c3.85,5.3,6,8.17,9.55,12.86C125.77,54.91,135.63,64,141,75a57,57,0,0,0,12.37,4.35c4.71,1,11,2.23,14.38,2.67l.78.1c6.67,1,16.76,6.25,24.26,15.87a49.46,49.46,0,0,1,8,15.46l1.72.17c4.83.51,7.67.72,8.93.8s4.09.22,8.84.33l2.89.07c3.09.07,5.48.12,7.26.19a29.31,29.31,0,0,1,6.5.95,27.13,27.13,0,0,1,5.41-.55h.47c1.25,0,2.82.09,5.08.23,1.92.11,2.56.12,2.59.12h0c.27,0,1.09,0,2.93-.11,2.51-.13,4.17-.19,5.53-.2h.17a25.42,25.42,0,0,1,18,7.37A24.92,24.92,0,0,1,284,135.14c.3-1,.59-2,.88-2.95,4-13.62,15.05-19.21,23.34-19.87,1.43-.11,3.16-.16,5.44-.16h.44c.8,0,1.26,0,1.48,0s.69-.09,1.7-.25c2.15-.35,3.68-.56,5-.69.87-.08,1.76-.13,2.63-.13A25.63,25.63,0,0,1,338.45,115a28.09,28.09,0,0,1,14-6.09,26.07,26.07,0,0,0,3.4-.69l1.68-.57a46.12,46.12,0,0,1,7.64-2,25.59,25.59,0,0,1,4.17-.34A25.12,25.12,0,0,1,380,107.62,26.59,26.59,0,0,1,391.67,102c1.05-.22,3.07-.67,6.69-1.6,3.8-1,6.57-1.68,8.63-2.15a26.13,26.13,0,0,1,5.75-.65h.07c.38-.17.76-.33,1.15-.48l.38-.14c2.9-1,6.52-2.1,12.59-3.68,9.78-2.53,15.72-4,19.11-4.73a70,70,0,0,1,13.88-1.39,52.47,52.47,0,0,1,15.78,2.19,50.48,50.48,0,0,1,22.11,14.2,53.19,53.19,0,0,1,12,20.92c4,13.38,2.43,28.58-4.31,41.71-6.64,12.91-19.65,23.3-35.69,28.5-1.45.48-4.72,1.53-16.15,4.55-2,.53-4.69,1.17-7.88,1.89-3.61.81-5.45,1.23-6.37,1.45a29.73,29.73,0,0,1-6.59.87,30.55,30.55,0,0,1-6.29,2.16l-2.46.62c-1.89.49-3.33.84-4.52,1.1-1.55.34-3.37.65-5.74,1-1.26.17-1.81.27-2,.3a29.54,29.54,0,0,1-5.85.59,28,28,0,0,1-9.41-1.63,29.16,29.16,0,0,1-14.42,6.73C375.46,215.46,372,216,365.3,217a29.8,29.8,0,0,1-3.79.3,81.29,81.29,0,0,1-12.87,2.26,96.85,96.85,0,0,1-11.31.9c-.93,0-1.8,0-2.68-.1a29.22,29.22,0,0,1-10.86-2.91,28,28,0,0,1-8.65,4.39l-.33.1c-3.36,1-6.9,1.57-17.16,2.13-1.08.07-2.73.16-4.55.16l-1.37,0a36.86,36.86,0,0,1-7.22.87c-3.08.12-6.86.18-10.91.18Z"/><path class="cls-3" d="M141.58,209.64c-9.65-2.29-18.92-4.81-26.87-11.72a20,20,0,0,1-14.92,2.42c-2.29-.47-4.56-1.19-11.16-4.2L86.09,195c-9.56.13-19-.1-28.24-2.59-16.07-4.31-32.46-15.08-41.56-30.27-7.92-13.22-9.92-30.93-5.49-46C15.37,100.66,25.66,85.33,40,79.25c5-2.11,10.49-4.23,14.64-5.84A27.55,27.55,0,0,1,56.74,69c-3.32-9.63-6.53-19.27-9.65-29A13.32,13.32,0,0,1,52,25.08a11.58,11.58,0,0,1,10.18-1.56,12.31,12.31,0,0,1,4.59,2.67c5.39,4.93,8.13,7.37,13.68,12.17a12,12,0,0,1,3.42-1.55,11.69,11.69,0,0,1,6.1,0,12.63,12.63,0,0,1,6.93,4.84c4.34,6,6.55,8.95,11.07,14.86,11,4.25,21.72,12.73,26.49,24.77a69.31,69.31,0,0,0,17.19,6.44c11.06,2.29,14.36,2.69,15.1,2.78l.56.07c4.11.6,12.35,4.45,18.78,12.69A41.56,41.56,0,0,1,194,121.32l7.63.79c4.14.43,7.26.69,9.28.81s5.06.26,9.17.36c4.49.1,7.78.17,10,.25a20.56,20.56,0,0,1,6.56,1.29,18.48,18.48,0,0,1,6-.88c1.17,0,2.67.1,4.71.22s2.8.13,3.06.14,1.26,0,3.42-.12,3.87-.18,5.15-.19a16.91,16.91,0,0,1,12.14,4.91,16.47,16.47,0,0,1,4.9,12.25c0,.07,0,.91,0,.91-.21,5.18-.41,13.16-.6,23.68,0,1.78.05,2.67.08,4.45,2.08-.15,3.93-.28,5.56-.38l1.38-3.86c3.65-10.38,7.52-21,10.55-31.39,2.7-9.28,9.87-13.3,15.86-13.77,1.28-.1,2.89-.14,5.06-.14,1.68,0,2.29,0,2.3,0s.72-.07,2.37-.34c1.92-.3,3.34-.5,4.47-.61a17.6,17.6,0,0,1,16.31,7.64c2.36-4.92,7.11-9,14.34-10a33.43,33.43,0,0,0,4.51-.93c.21-.06.82-.26,2.12-.71a38.3,38.3,0,0,1,6.26-1.66c5.33-.87,10.44.75,14.92,4.73a18.1,18.1,0,0,1,11.85-8.34c1.05-.21,3.13-.67,7.12-1.69,3.71-1,6.45-1.65,8.4-2.1a17.42,17.42,0,0,1,5.7-.34,20.14,20.14,0,0,1,2.45-1.15l.28-.11c2.69-1,6.42-2,11.76-3.4,9.52-2.47,15.5-4,18.68-4.64,7.69-1.58,17.7-1.85,25.39.58a42.14,42.14,0,0,1,18.42,11.86A44.68,44.68,0,0,1,501.68,127c3.55,11.84,1.73,24.77-3.73,35.39-6.28,12.2-18.77,20.42-30.76,24.31-1.28.42-4.31,1.41-15.69,4.41-1.74.46-4.22,1.06-7.57,1.82-3.7.83-5.59,1.26-6.52,1.49a21,21,0,0,1-6.57.57,21.45,21.45,0,0,1-6.18,2.42c-.31.07-1.08.26-2.72.69-1.83.47-3.16.8-4.18,1-1.3.28-2.92.55-5.11.86-1.83.26-2.4.37-2.42.38a19.73,19.73,0,0,1-15.68-3.26A20.06,20.06,0,0,1,380.77,206c-6.67,1.11-10,1.62-16.68,2.58a20.54,20.54,0,0,1-3.85.2c-2.25.78-5.17,1.43-12.63,2.34-7.16.87-10.13.92-12.35.76a20.19,20.19,0,0,1-12.54-5.41,18.88,18.88,0,0,1-10.09,7.25l-.27.08c-2.5.72-5.41,1.24-15.18,1.78a56.26,56.26,0,0,1-6.38.08,26.22,26.22,0,0,1-6.61.92c-2.92.11-6.75.19-11.4.18-4.31,0-6.46,0-10.77,0-5.63,0-8.44,0-14.07-.16h-.82c-1.76,0-3.9-.11-6.54-.3l-.25,0c-.48,0-1-.1-1.46-.18l-.18,0c-.72-.13-1.43-.29-2.14-.49a21.11,21.11,0,0,1-7.46,1.1,28.32,28.32,0,0,1-4-.44s-2.84-.23-18.13-1.18c-2.52-.15-6.26-.41-11.22-.82s-8.5-.74-10.93-1a20.42,20.42,0,0,1-14-7.2C161.34,210.53,151.63,210.24,141.58,209.64Z"/><path id="Black_offset" data-name="Black offset" d="M488.56,112a37.89,37.89,0,0,0-16.78-10.9c-6.58-2.05-14.47-2.18-23.53-.5-3.13.58-9,2.13-18.4,4.58-5.21,1.35-8.83,2.37-11.37,3.29l-.22.08a15.91,15.91,0,0,0-3,1.58,13.32,13.32,0,0,0-5.65.08c-1.9.43-4.61,1.12-8.28,2.06-4.07,1-6.22,1.52-7.3,1.74a14,14,0,0,0-11,11.36L379.46,122q-5.7-5.43-12.37-4.36a34.76,34.76,0,0,0-5.6,1.5c-1.61.55-2.24.75-2.38.79-2.5.61-4.08.89-5,1-9,1.31-13.25,8.57-12.6,14.87.11,1.1.26,2.4.45,3.85-3.25-6-4.52-8.2-5.22-9.35l-.07-.11a14,14,0,0,0-13.35-6.86c-1.05.11-2.4.3-4.24.59-1.68.27-2.41.35-2.65.37-.07,0-.74.06-2.63.06-2.06,0-3.57,0-4.75.12-4.68.37-10.29,3.58-12.4,11-3,10.5-6.83,21.14-10.49,31.6-.8,2.27-1.53,4.35-2.22,6.28-2.88.16-6.67.43-11.56.79l-.83.06c0-3.38-.08-5.07-.13-8.46.24-10.57.48-18.6.71-23.87,0,0,0-.74.05-.82a12.82,12.82,0,0,0-3.76-9.54,13.11,13.11,0,0,0-9.42-3.81c-1.22,0-2.79.07-5,.18s-3.22.13-3.64.13-1.26,0-3.26-.15-3.44-.19-4.55-.2a14.63,14.63,0,0,0-6,1.16,16.51,16.51,0,0,0-6.59-1.58c-2.24-.08-5.51-.15-10-.25-4.16-.1-7.29-.23-9.32-.36s-5.23-.4-9.41-.83c-4.51-.47-7.8-.82-10.06-1l-.54,0a37.78,37.78,0,0,0-7.54-19.25c-5.67-7.3-12.95-10.78-16.28-11.26l-.57-.07c-.76-.1-4.15-.51-15.34-2.83a73.31,73.31,0,0,1-19.36-7.44c-4.28-12-15-20.34-25.76-24.26-4.8-6.27-7.15-9.42-11.75-15.78a9,9,0,0,0-5-3.47,8.41,8.41,0,0,0-4.37,0,8.6,8.6,0,0,0-4.29,2.76C74,37.6,70.79,34.77,64.51,29a8.81,8.81,0,0,0-3.29-1.91,8.3,8.3,0,0,0-7.3,1.11,9.51,9.51,0,0,0-3.45,10.66q4.89,15.46,10.34,30.7a23.83,23.83,0,0,0-3.21,6.76c-4.4,1.71-10.56,4.07-16,6.39-13.38,5.72-22.82,20.28-27,34.76-4.08,14.1-2.2,30.7,5.25,43.09,8.52,14.14,23.83,24.15,38.81,28.17,9.21,2.48,18.53,2.6,28,2.38,1,.49,2.23,1.05,3.6,1.67,6.15,2.8,8.26,3.48,10.17,3.87a15.7,15.7,0,0,0,12-2,12.78,12.78,0,0,0,2.22-1.9A49.64,49.64,0,0,0,142,206a47.68,47.68,0,0,0,30.27-5,15.31,15.31,0,0,0,12.82,8.58c2.42.22,6.05.56,10.91,1s8.64.66,11.14.82c15.15.94,18.26,1.18,18.65,1.24a27.48,27.48,0,0,0,3.37.37,16.49,16.49,0,0,0,7.19-1.38,17.18,17.18,0,0,0,3.06.84l.17,0c.34.06.69.1,1,.13l.23,0c2.56.18,4.61.27,6.27.29H248c5.64.11,8.47.15,14.12.16,4.3,0,6.45,0,10.75,0,4.57,0,8.35-.06,11.23-.17a20.23,20.23,0,0,0,6.23-1,49.55,49.55,0,0,0,6.71,0c9.26-.52,12-1,14.15-1.61l.2-.06a15,15,0,0,0,9.83-9.35l2.12-.18a15.21,15.21,0,0,0,12.43,7.49c1.71.12,4.3.14,11.5-.74,7.84-.95,10.32-1.58,12.37-2.38l.12,0h0a16.53,16.53,0,0,0,3.9-.1c6.65-.95,10-1.47,16.61-2.57s11.64-6,12.61-11.87c1.25,1.08,2.26,2,3,2.6a15.71,15.71,0,0,0,13.7,3.64c.17,0,.86-.17,2.72-.43,2.07-.29,3.59-.55,4.78-.8,1-.21,2.23-.52,4-1s2.55-.65,2.88-.72a17,17,0,0,0,6.09-2.7,16.56,16.56,0,0,0,6.61-.28c1-.24,2.89-.68,6.61-1.52,3.3-.74,5.73-1.33,7.43-1.78,11.26-3,14.3-3.91,15.49-4.35C477.33,179,487.86,173,494.3,161a43.56,43.56,0,0,0,3.55-32.68A41.28,41.28,0,0,0,488.56,112Z"/><g id="Blue_offset" data-name="Blue offset"><path class="cls-3" d="M60.63,179.68a51.93,51.93,0,0,1-32-23,44.85,44.85,0,0,1-4.58-35.92c3.48-11.92,10.73-24.52,21.61-29.3,7.5-3.3,16.5-6.67,20.12-8.07.21-2.92,1.24-8.2,5.6-11.27q-6.64-17.85-12.53-36Q72.2,48.3,86.11,59.78c.41-4.12.61-6.18,1-10.3,5.29,7.36,8,11,13.57,18.28,10.55,2.94,20.11,10.65,23.44,22.46a81.82,81.82,0,0,0,25.18,10.3c11.15,2.37,14.91,2.79,16,2.93l.46,0c11.9,4.5,17.29,18.4,15.36,31.53-1,3.18-1.52,4.77-2.54,7.94-1.28-3.13-1.92-4.7-3.18-7.84l0,.1c0-.06-1.51-5.57-15.35-8.76-4.42-1-9.47-2.17-14.43-3.41-8.45-2.12-16.95-4.28-25.3-7a12.65,12.65,0,0,1-8,5.58,55.09,55.09,0,0,1-11.26,1.81h-.23l-.23,0c-1.35-.16-3.16-.46-5.19-.88-7.8-1.6-17.3-3.5-25.14-1.92-6.68,1.34-13.72,3.43-16.45,9.62-2.92,6.66,1.34,13.81,1.53,14.11C58,148.5,62.31,151.52,68,153a35.53,35.53,0,0,0,11.81.79c.16-1.8.42-4.52.68-8.05a90.15,90.15,0,0,1,1.27-10.44A3.83,3.83,0,0,1,85.26,132a6.43,6.43,0,0,1,2,.2c1.3.31,3.14.87,5.64,1.68,2.29.75,4,1.25,5.18,1.51s3.23.62,5.83,1c2.8.41,4.84.74,6.25,1a4.61,4.61,0,0,1,3.66,5.62c-.33,2-.92,4.83-1.81,8.73-.86,3.73-1.45,6.56-1.76,8.42-.84,5-1.72,12.78-2.56,23l0,.62a3.84,3.84,0,0,1-1.7,3.06,5.08,5.08,0,0,1-4,.57c-.84-.17-2.37-.64-7.7-3.06-3.43-1.56-5.24-2.45-6.26-3C78.76,182,69.71,182.23,60.63,179.68Z"/><path class="cls-3" d="M143.18,196.7a39.12,39.12,0,0,1-25.07-14.51c-5-6.3-7.57-18-6.22-26s7.25-17.93,13.65-22.3a38.48,38.48,0,0,1,26.14-6c8,1,18.35,6.82,23.68,13.42,4.9,6.08,8.39,17.42,7.76,25.49s-5.89,18.71-12.24,23.37A37.14,37.14,0,0,1,143.18,196.7ZM149,149.36a11.1,11.1,0,0,0-9.09,2.6,12.75,12.75,0,0,0-4.83,8.43,13,13,0,0,0,2.12,9.64,12.15,12.15,0,0,0,8.63,5.05,11.41,11.41,0,0,0,9.34-2.64,12.26,12.26,0,0,0,4.59-8.48,13.34,13.34,0,0,0-2.42-9.59A11.85,11.85,0,0,0,149,149.36Z"/><path class="cls-3" d="M229.46,203.55a13.63,13.63,0,0,1-1.87-.22c-1.47-.24-6.15-.52-19.93-1.38-2.46-.15-6.12-.4-11-.8s-8.46-.74-10.87-1c-2.74-.25-4.53-2.1-4.33-4.47.26-3.27.86-8.18,1.77-14.6s1.48-11.15,1.73-14.3.55-9.37.91-18.26c.09-2.27.21-5.74.34-10.32v-.55a3.55,3.55,0,0,1,1.16-2.69,4,4,0,0,1,3.13-.91c2.2.2,5.45.55,9.91,1s7.61.72,9.78.86,5.39.28,9.68.38c4.44.1,7.66.16,9.85.24,2.9.1,4.9,1.64,5.38,4.09.1.52.27,1.74.6,6.37s.35,5.87.34,6.38a3.63,3.63,0,0,1-3.93,3.6c-.22,0-.6,0-1.15-.09-7.92-.82-15.17-1.57-21.46-2h-.21c0,.38-.07.9-.11,1.61a9,9,0,0,0,.06,1.88,6.35,6.35,0,0,0,.76.09c.28,0,.82,0,1.63,0s1.72,0,2.34.07c3.74.21,7.58.29,11.41.25l2.46-.11a22.8,22.8,0,0,1,2.73-.09,3.83,3.83,0,0,1,3.95,3.86l-.1.56c0,.19-.22,1.22-.91,6.37a61.05,61.05,0,0,0-.51,6.63c0,1.76-1.46,3.62-4.46,3.52h-.17l-4.34-.61c-1.13-.16-4.1-.39-11.77-.83l-4.21-.25c0,.22,0,.46,0,.75a19.57,19.57,0,0,0,0,2.85,12,12,0,0,0,3.34.74c2.7.16,4,.23,6.74.37,1.55.07,4,.05,7.1-.09,3.39-.15,5.88-.21,7.61-.16a4,4,0,0,1,4,4.47,54.28,54.28,0,0,1-1,7.22c-1,5.44-1.58,6.68-2.07,7.39l-.06.09A5,5,0,0,1,229.46,203.55Z"/><path class="cls-3" d="M283.77,203.5c-2.74.11-6.38.17-10.82.17-4.28,0-6.43,0-10.71,0-5.69,0-8.54,0-14.23-.16h-.78c-1.43,0-3.31-.1-5.59-.26h-.17l-.17,0c-2.4-.42-3.92-2.07-3.88-4.18.06-3.16.2-7.93.43-14.17s.37-11,.43-14.07c.06-3.28,0-8.32,0-15s-.09-11.76,0-15.12c0-1.81,1.39-3.72,4.28-3.67.94,0,2.29.08,4.11.19s3,.16,3.79.16,2.34,0,4.19-.13,3.47-.16,4.51-.17a3.46,3.46,0,0,1,2.53,1,3.5,3.5,0,0,1,1,2.72c0,.26,0,.38,0,.64-.31,5.36-.64,13.55-1,24.3l.05,11.37c0,3,.05,5.3.08,7,2.73-.05,6.58-.24,11.46-.6,5.71-.42,9.89-.72,12.76-.84,2.53-.11,4.35,1.36,4.44,3.59a63.31,63.31,0,0,1-.72,13.36,4.42,4.42,0,0,1-2.88,3.57A10.17,10.17,0,0,1,283.77,203.5Z"/><path class="cls-3" d="M346.3,198.11c-6.37.78-8.42.75-9.4.68a5.26,5.26,0,0,1-4.81-3.56,45.37,45.37,0,0,0-1.81-4.51c-1.4.08-4.39.33-10.8.88-3.64.32-5.56.53-6.56.67a25.73,25.73,0,0,0-.63,2.78c-.49,2.63-1.37,5.49-4.06,6.29-1,.3-3.16.7-11.65,1.17-4.15.23-10.89-.1-10.55-3.55.84-8.71,6.38-19.56,9.61-29.11,3.59-10.61,7.38-21.46,10.32-32.15.81-3,2.46-3.78,3.74-3.88.89-.07,2.18-.1,4-.1,2,0,3-.05,3.51-.1.73-.06,1.85-.21,3.31-.45,1.62-.25,2.81-.42,3.65-.51,1.2-.12,3,.25,4.38,2.57,5.59,9.45,10.64,19.86,16,29.71,4.83,8.92,12.25,18.73,14.45,27.26.3,1.15-.55,3.26-3,4.22C355,196.78,353.2,197.27,346.3,198.11Zm-28.2-26.55c1-.05,2.27-.15,4-.3l.17,0c-.35-1-1-2.69-2.1-5.37-.1-.25-.2-.48-.3-.7-.1.36-.2.74-.32,1.13C318.81,168.8,318.37,170.46,318.1,171.56Z"/><path class="cls-3" d="M415.45,186.27c-.9.19-2.19.41-3.95.65-1.58.23-2.75.41-3.47.56a5.93,5.93,0,0,1-4.89-1.59c-2.76-2.31-9-7.45-18-15.47l-6.25-5.54q.58,3.6,1.41,8.28c1.14,6.57,2,11.59,2.44,14.9a4.3,4.3,0,0,1-3.74,5c-6.57,1.09-9.85,1.6-16.44,2.55-2.62.37-4.65-1.07-4.92-3.48-.36-3.13-.74-7.91-1.13-14.2s-.77-10.92-1.12-14c-.38-3.23-1.09-8.14-2.12-14.6s-1.76-11.48-2.14-14.78c-.16-1.38.54-3.84,4.15-4.36,1.61-.24,3.64-.64,6-1.23.27-.07,1.07-.3,3.16-1a24.72,24.72,0,0,1,3.94-1.07c1.73-.29,3.07.76,4.28,1.93q9.8,9.6,19.94,18.79c1.2,1.1,2.83,2.55,4.86,4.32q-.78-4-2.15-10.1c-1.35-5.94-2.28-10.5-2.78-13.54-.56-3.42,1.65-4.8,3-5.09,1.72-.35,4.34-1,7.78-1.85s6.19-1.58,8-2a3.62,3.62,0,0,1,4.44,3.2c.63,3.23,1.45,8.18,2.42,14.71s1.74,11.32,2.36,14.53l5.4,27.89c.44,2.29-1.07,4.31-3.66,4.89-.73.17-1.83.44-3.28.82S416.25,186.09,415.45,186.27Z"/><path class="cls-3" d="M448.72,178.37c-1.58.42-4,1-7,1.69s-5.38,1.21-6.86,1.57c-3,.74-4.78-.86-5.14-2.64-.62-3.14-1.42-7.91-2.39-14.18s-1.76-10.94-2.36-14-1.73-8-3.25-14.38-2.63-11.28-3.28-14.53a4.13,4.13,0,0,1,3-4.66c2.18-.81,5.61-1.75,10.45-3,9.1-2.37,14.87-3.89,17.67-4.41,7.47-1.39,13.79-1.33,18.81.25A28.68,28.68,0,0,1,481,118.57a34.65,34.65,0,0,1,7.26,13c2.34,7.72.88,19.12-3,26-4.72,8.27-12.94,14-21.51,16.62C461.88,174.74,457,176.2,448.72,178.37Zm2-20.53a24.81,24.81,0,0,0,4.43-.92c4.42-1.23,7.46-3.47,9.25-6.79s2-6.93,1-11.26a12.85,12.85,0,0,0-6.1-8.57c-3.12-1.79-6.64-2.13-10.8-1a26.73,26.73,0,0,0-3.91,1.34c.35,1.59.8,3.7,1.34,6.28.68,3.29,1.21,5.79,1.59,7.43s1,4.06,1.74,7.26Q450.15,155.47,450.7,157.84Z"/></g><g id="Letters_path" data-name="Letters path"><path class="cls-4" d="M177.38,120.76c-3.07-13.23-12-14.48-12-14.48s-2.08,0-16.58-3c-8.76-2.56-17.13-5.27-25.06-10-.81-.49-1.43-.94-1.72-1l0,0a.78.78,0,0,1-.27-.18c-2.13-10.6-11.52-18.43-20.57-21.18-.88-.27-1.52-.43-1.81-.49a0,0,0,0,0,0,0,.3.3,0,0,1-.15,0,35.6,35.6,0,0,0-11-.81c-1.08.09-2.21.24-3.37.45a35.11,35.11,0,0,0-10,3.5l0,0c-.51,1.7-6.26,11.93-6.26,11.93l-.13,0c-.94.36-6.6,2.54-13.08,5.15-2.76,1.11-5.74,2.27-8.42,3.48-10.15,4.56-16.62,16.45-20,27.63a46.39,46.39,0,0,0-1.74,12.84,40.83,40.83,0,0,0,6.09,20.94A45.15,45.15,0,0,0,43.6,168.88q1.08.78,2.22,1.5l0,0a6.79,6.79,0,0,1,.71.45,62,62,0,0,0,6.9,3.83h0l1.52.7a31.21,31.21,0,0,0,10.77,2.55,18,18,0,0,0,9.68-1.9c4.67-2.62,6.6-8.59,6.58-8.61-.19-.24-4.81.79-8.36.63a48.63,48.63,0,0,1-7.87-1.14,13.41,13.41,0,0,0,8,1.51c6.55-1.05,9.41-9.83,9.39-9.86-.2-.27-5,.45-8.58-.15a28.36,28.36,0,0,1-6.14-1.76c-1.12-.47-2.69-1.35-4.68-2.13a24.62,24.62,0,0,1-4.16-2.1,21,21,0,0,1-6.8-6.79c-.33-.54-5.17-8.82-1.69-16.66s12.36-9.76,18.34-11.1a32.22,32.22,0,0,1,8.13-.61c7.78.26,16.36,2.24,21.33,3.08h0c.71.12,1.34.22,1.89.29a52.5,52.5,0,0,0,10.64-1.71,11.57,11.57,0,0,0,4.83-2.5,9.78,9.78,0,0,0,1.1-1.17,8.06,8.06,0,0,0,1.34-2.71,1.57,1.57,0,0,1,0-.16v0a.81.81,0,0,0,.09.1l.17.1c.08.05.2.1.32.16l.24.1.62.25.35.12.83.3c.15,0,.31.11.47.15l.5.17.93.3c.3.1.6.2.92.29l.68.21,2.45.72,1.3.38.72.2,1.4.4h0c.72.2,1.47.4,2.22.62l.78.21,3.2.85c1.64.44,3.34.87,5.06,1.3l3.38.85c2.5.62,5,1.23,7.48,1.8,2,.47,4,.92,5.87,1.37l.76.18,1.09.24c.87.2,1.71.42,2.49.64l1.14.33c.75.21,1.47.45,2.12.68s1.3.47,1.89.72a29.08,29.08,0,0,1,4.46,2.28l.68.46a17.5,17.5,0,0,1,1.72,1.34l.85.82a5.08,5.08,0,0,1,.38.43,8.76,8.76,0,0,1,1.87,3.35A47.55,47.55,0,0,0,177.38,120.76Z"/><path class="cls-4" d="M173.07,142.92c-4.86-6.39-14.53-11.26-21.73-12.33s-17.76.81-24,5.54a32,32,0,0,0-6.73,44.57c5,6.93,15.32,12.1,22.91,13.23s18.82-.74,25.33-6a29.89,29.89,0,0,0,11.3-21.51A33.1,33.1,0,0,0,173.07,142.92Zm-15.82,31.65a14.4,14.4,0,0,1-11.74,3.28,15.3,15.3,0,0,1-10.79-6.36,15.66,15.66,0,0,1-2.58-11.59A15.5,15.5,0,0,1,138,149.79a14.1,14.1,0,0,1,11.4-3.2,15,15,0,0,1,10.42,6.26,16.19,16.19,0,0,1,3,11.5A14.88,14.88,0,0,1,157.25,174.57Z"/><path class="cls-4" d="M232.78,185.19c-1.62,0-4.08,0-7.35.16s-5.75.17-7.41.08c-4.57-.22-6.85-.36-6.85-.36-3.46-.41-5.43-1.2-5.9-2.33a11.81,11.81,0,0,1-.23-4.26c.09-1.64.15-2.54.19-2.67.26-.57,1-.8,2.28-.72l4.92.3c6.29.36,10.31.6,12.06.85l4.17.59c.9,0,1.36-.24,1.37-.82a67,67,0,0,1,.56-6.91c.62-4.46,1-6.68,1-6.68,0-.6-.38-.91-1.07-.93s-1.44,0-2.47.08c-1.33.08-2.18.1-2.52.13-3.93,0-7.83,0-11.66-.27-.58,0-1.31-.06-2.2-.06s-1.48,0-1.78,0a4.12,4.12,0,0,1-2.92-1c-.57-.68-.81-2-.7-4a13.85,13.85,0,0,1,.41-3.31c.4-.69,1.41-1,3-.88,6.38.4,13.62,1.15,21.58,2l.94.08a.81.81,0,0,0,.94-.89c0-.72-.1-2.77-.33-6.13s-.41-5.4-.53-6.06c-.22-1.11-1.08-1.72-2.63-1.77-2.17-.08-5.43-.14-9.79-.24s-7.63-.25-9.8-.39-5.5-.4-9.88-.86-7.68-.81-9.88-1c-.8-.08-1.19.22-1.18.89v.61c-.13,4.58-.22,8-.31,10.34-.31,9-.61,15.1-.86,18.38s-.81,8-1.69,14.46-1.46,11.23-1.71,14.45c-.07.83.42,1.3,1.47,1.39,2.41.22,6,.56,10.86,1s8.46.64,10.9.8c11.22.69,18,1.05,20.3,1.42a13.13,13.13,0,0,0,1.43.18,1.86,1.86,0,0,0,1.61-.77c.46-.68,1-2.82,1.67-6.41a50.61,50.61,0,0,0,1-6.8C233.8,185.74,233.47,185.22,232.78,185.19Z"/><path class="cls-4" d="M286,185.41c-2.81.12-7,.43-12.64.84s-9.84.6-12.66.62h-1.22c-.44-.08-.67-.31-.7-.65s-.08-.69-.11-1c0-1.7-.06-4.4-.08-8.09,0-4.57,0-6.86,0-11.43q.63-16.31,1.1-24.45l0-.56c0-.55-.18-.82-.63-.82-1,0-2.43.06-4.36.16s-3.39.15-4.37.14-2.17-.06-3.93-.16-3.1-.18-4-.19-1.34.29-1.35.92q-.08,5,.09,15c.1,6.68.13,11.71.08,15.05q-.07,4.71-.38,14.12t-.38,14.12c0,.75.43,1.21,1.36,1.37q4,.29,6.16.25c5.71.12,8.56.15,14.27.16,1.4,0,5,0,10.7,0,4.37,0,8-.05,10.69-.16a10,10,0,0,0,1.95-.16,1.62,1.62,0,0,0,1-1.38,61.15,61.15,0,0,0,.72-12.8C287.29,185.69,286.86,185.38,286,185.41Z"/><path class="cls-4" d="M341.82,166.28c-5.27-9.8-10.26-20.21-15.79-29.56-.53-.89-1.11-1.32-1.67-1.27-.77.08-1.92.24-3.47.49s-2.72.4-3.51.47-2.1.12-3.77.11-2.92,0-3.73.09c-.46,0-.83.64-1.13,1.74-3,10.78-6.68,21.64-10.26,32.31-3.12,9.31-8.41,20-9.39,28.17-.08.69,2.49,1.15,7.35.88,6.17-.34,9.79-.71,10.85-1,.84-.25,1.5-1.61,2-4,.5-2.67,1-4.25,1.51-4.76.33-.28,3.17-.61,8.51-1.07,7.92-.69,12.13-1.06,12.65-.91s1.65,2.36,3.09,6.37a2.4,2.4,0,0,0,2.22,1.72,60.76,60.76,0,0,0,8.78-.67,55.63,55.63,0,0,0,8.8-1.47c.76-.3,1.17-.83,1.05-1.24C353.62,184.63,346.51,175,341.82,166.28ZM325.6,173c-.17.48-1.29.82-3.33,1s-3.78.3-4.73.34c-1.83.08-2.81-.11-2.84-.63-.05-.77.61-3.48,1.93-8.1,1.24-4.35,2.11-7.21,2.65-8.53a58.5,58.5,0,0,1,3.62,7.66c1.75,4.14,2.67,6.7,2.74,7.64A1.47,1.47,0,0,1,325.6,173Z"/><path class="cls-4" d="M411.82,122.1c-1.74.4-4.38,1.06-7.89,2s-6.16,1.52-7.92,1.88c-.62.13-.83.72-.65,1.76q.75,4.52,2.78,13.39t2.8,13.33c.38,2.22.37,3.36,0,3.44-.55.12-1.27-.19-2.19-.92-3.69-3.16-6.43-5.59-8.25-7.26q-10.11-9.21-19.91-18.85c-.87-.84-1.48-1.24-1.83-1.19a22.12,22.12,0,0,0-3.43.95c-1.7.59-2.84,1-3.43,1.1-2.47.62-4.57,1-6.28,1.29-1.15.16-1.69.57-1.61,1.19q.57,4.89,2.17,14.66t2.18,14.7c.37,3.11.77,7.82,1.18,14.1s.81,11,1.17,14.05a1.18,1.18,0,0,0,1.53,1.14c6.56-.94,9.84-1.45,16.39-2.54.85-.14,1.2-.71,1.06-1.7q-.69-5-2.38-14.84t-2.37-14.84a1.21,1.21,0,0,1,.24-1,2.12,2.12,0,0,1,.76.4c5,4.44,8.82,7.78,11.34,10,9.1,8.08,15.32,13.13,18,15.41.94.78,1.7,1.11,2.26,1,.82-.17,2.05-.37,3.7-.61s2.89-.43,3.71-.61,1.88-.44,3.38-.83,2.64-.68,3.4-.85,1.29-.69,1.14-1.45q-2.64-13.95-5.29-27.92c-.62-3.25-1.4-8.14-2.34-14.64s-1.73-11.39-2.35-14.61C412.74,122.35,412.38,122,411.82,122.1Z"/><path class="cls-4" d="M478.71,120.52a25.81,25.81,0,0,0-11.48-7.7c-4.58-1.45-10.36-1.48-17.38-.18-2.7.5-8.5,2-17.45,4.36-4.71,1.22-8.1,2.15-10.11,2.9-.82.3-1.17.77-1.05,1.36.65,3.21,1.74,8,3.3,14.42s2.67,11.23,3.32,14.46,1.44,7.78,2.43,14.06,1.8,11,2.42,14.05c.14.66.64.87,1.55.65,1.54-.37,3.85-.89,6.93-1.59s5.41-1.25,6.94-1.66c8.13-2.14,13.11-3.67,14.85-4.16,6.92-2,15.86-7.88,19.55-15,4-7.77,5.08-15.81,2.85-23.93A29.75,29.75,0,0,0,478.71,120.52Zm-11.66,30.72c-2.2,4.08-6,6.91-11.29,8.39-4.9,1.37-7.48,1.41-7.75.21q-.56-2.49-1.75-7.35c-.79-3.25-1.36-5.7-1.72-7.32s-.9-4.15-1.58-7.48-1.2-5.83-1.57-7.49c-.25-1.14,1.89-2.32,6.42-3.58,4.94-1.38,9.29-.94,13.05,1.21A15.5,15.5,0,0,1,468.24,138C469.5,142.94,469.12,147.39,467.05,151.24Z"/></g><g id="InnerBlueShadow"><path class="cls-5" d="M62,159.69c-1.83,1.29-2.61,4.08-1.37,5.57a3,3,0,0,0,1.28.85,5.82,5.82,0,0,0-3.79,1.12,3.38,3.38,0,0,0-.75.93,3.46,3.46,0,0,0-.11,3,12.13,12.13,0,0,1,.36,1.23,9.37,9.37,0,0,1-1.27-.46c-.49-.22-2.75-1.45-4.24-2.27s-2.74-1.49-3.6-2l-.44-.27-.16-.11a40.7,40.7,0,0,1-13.18-13.47,37.07,37.07,0,0,1-5.62-19.59c6.91,2.23,10.37,3.3,17.32,5.35a25.78,25.78,0,0,0,3,7.71,25.43,25.43,0,0,0,8.16,8.19A29.61,29.61,0,0,0,62.38,158l.29.11,2.15.77A5.17,5.17,0,0,0,62,159.69Z"/><path class="cls-6" d="M176.21,165.62c-3.79-.41-5.69-.63-9.48-1.09a3,3,0,0,1,0,.31,18.86,18.86,0,0,1-21.66,16.7,19.46,19.46,0,0,1-13.68-8.13,19.2,19.2,0,0,1-3.17-14.19c0-.13,0-.26.07-.39-3.78-.66-5.66-1-9.43-1.72,0,.13,0,.26-.07.39a26.8,26.8,0,0,0,5.15,21.2c4.81,6.41,11.41,10.25,20.06,11.53s16-.44,22.17-5.18,9.31-11,10-19C176.2,165.88,176.21,165.75,176.21,165.62Z"/><path class="cls-7" d="M229.48,188.94c-.14.95-.36,2.25-.69,4s-.62,3.08-.83,3.88c-1.7-.21-6.18-.5-20-1.36-2.42-.15-6-.39-10.83-.79-3.34-.27-6.1-.52-8.28-.73.28-2.92.74-6.82,1.41-11.79.85-6.4,1.41-11.34,1.65-14.66l0-.31q17.28,1.48,34.6,2.16c-.14,1.12-.26,2.26-.36,3.41l-1.14-.17c-1.92-.26-5.87-.51-12.45-.89-2-.11-2.94-.17-4.9-.3-4.24-.27-5.75,2-6.18,2.94a2.8,2.8,0,0,0-.18.51,16.06,16.06,0,0,0-.32,3.38c-.18,2.92,0,4.61.48,5.84,1.42,3.41,5.94,4.35,9.21,4.74l.27,0c2.75.16,4.12.24,6.87.37,1.77.09,4.33.08,7.81-.08C227.2,189,228.45,189,229.48,188.94Z"/><path class="cls-8" d="M283.31,189.29a54.06,54.06,0,0,1-.52,7.71c-2.64.09-5.92.15-9.76.13-4.27,0-6.41,0-10.68,0L248,196.94h-.66c-.75,0-1.64,0-2.66-.09.06-3.09.16-7.1.29-11.79.16-6,.28-10.89.31-14.19,0-.35,0-.7,0-1.08,3.75,0,5.63.06,9.37.06,0,3.28,0,7.26,0,7.26,0,4.07,0,6.6,0,8.16,0,.08,0,.15,0,.24,0,.36.08.74.12,1.11a4.54,4.54,0,0,0,3.91,3.92,4.68,4.68,0,0,0,.84.07h1.23c2.87,0,7.1-.21,12.92-.63C277.63,189.68,280.82,189.45,283.31,189.29Z"/><path class="cls-9" d="M338.25,168.05c-.52-1-1-1.92-1.5-2.84-3.59.41-5.38.6-9,1,1.56,3.88,1.79,5.07,1.85,5.86a4.59,4.59,0,0,1-.21,2,.28.28,0,0,1,0,.12c-1.12,3.05-5,3.42-6.82,3.59-2.26.21-3.89.31-4.95.36-5.72.24-6.8-2.43-6.91-4.05-.05-.8,0-1.95,1.29-6.48-3.41.27-5.12.39-8.54.62l-1.15,3.5c-4.63,13.91-7,20.9-8.17,24.35.59,0,1.31,0,2.15-.07,4.9-.28,7.41-.52,8.66-.67.09-.3.18-.7.28-1.23.83-4.23,1.61-5.7,2.57-6.67l.27-.26c1.15-1,2-1.29,10.95-2.06,12.69-1.1,13.24-1,14.26-.76l.26.09c2,.69,3.12,2.43,5.13,7.84,1.07,0,3.12-.18,7-.65,2.18-.27,3.75-.49,4.89-.67C346.47,183.3,342.29,175.69,338.25,168.05Z"/><path class="cls-10" d="M373.29,174.52c.86,5.18,1.54,9.39,2,12.54-4.31.7-6.46,1-10.78,1.67-.3-2.89-.62-6.75-1-11.5-.44-6.23-.85-11-1.25-14.27-.05-.34-.09-.7-.15-1.07,3.59-.53,5.38-.81,9-1.39C371.57,163.82,372.3,168.52,373.29,174.52Z"/><path class="cls-11" d="M413.5,152.37c.05.34.11.67.17,1,1.88,10.2,2.83,15.3,4.71,25.49l-.87.22c-1.71.45-2.7.69-3.21.8-.83.18-2.34.41-3.39.56s-2,.3-2.79.43c-2.91-2.43-9.5-7.79-18-15.32l-7.86-6.91c4.09-.73,6.13-1.1,10.21-1.89,1.06.94,2.24,2,3.52,3.06l.1.08a6.72,6.72,0,0,0,5.48,1.67c4.17-.84,3.81-5,3.42-7.32C408.37,153.5,410.08,153.13,413.5,152.37Z"/><path class="cls-12" d="M472.11,136.81c1.49,5.79,1,11.17-1.5,15.89-2.75,5.14-7.52,8.73-14,10.54-3.4.95-11.36,3.08-12.55-2.35-.39-1.78-1-4.31-1.7-7.3-.79-3.32-1.34-5.74-1.7-7.39l-.09-.38c-3.6,1-5.41,1.41-9,2.31.09.37.16.71.23,1.05.63,3,1.43,7.55,2.52,14.18.76,4.61,1.39,8.39,1.95,11.26l4.31-1c3.24-.73,5.4-1.26,6.78-1.62,8-2.11,12.93-3.56,14.66-4.11,8.19-2.6,13.75-6.87,16.95-12.85a27.83,27.83,0,0,0,2.59-21.25C477.77,135,475.88,135.64,472.11,136.81Z"/></g></g><g id="Beak"><path class="cls-13" d="M178.29,134.81a3.49,3.49,0,0,0-.14-.5h0c-.59-1.75-3.61-7.37-17.48-10.55S132,118,118.78,112.37a1.37,1.37,0,0,0,0,.17c-2.65-1.08-5.69-2.58-7.1-5.57a10.15,10.15,0,0,1-.59-6.24c1.35-7.59,7.13-8.7,11-8.58a91.33,91.33,0,0,0,26.8,11.11c13.93,3.42,16.6,3,16.6,3C176.63,109.3,179.26,123.91,178.29,134.81Z"/><path class="cls-14" d="M115.78,101.81c8.63,7.34,20.57,8.64,30.88,10.13,9.67,1.4,27.34,4.24,30.79,16.9"/></g><g id="SeagullShadows"><path class="cls-15" d="M116.33,116.43a11.3,11.3,0,0,1-4.83,2.5,52.5,52.5,0,0,1-10.64,1.71c-.55-.07-1.18-.17-1.89-.29h0c-.55-.27-1.11-.53-1.67-.76-1.6-.66-5.16-1.47-6-3.1a1.78,1.78,0,0,1,.52-2.09,4.86,4.86,0,0,1,2.15-.86c5.71-1.19,11.71-.75,17.54.08a8.54,8.54,0,0,1,3.35,1A3.4,3.4,0,0,1,116.33,116.43Z"/><path class="cls-15" d="M45,167.87a3.32,3.32,0,0,1-1.35,1,44.63,44.63,0,0,1-12.35-13.42,40.8,40.8,0,0,1-6.09-20.94,23.19,23.19,0,0,1,4.07,2.84h0a37.22,37.22,0,0,0,5.49,16.49,40.84,40.84,0,0,0,10.94,12A3.77,3.77,0,0,1,45,167.87Z"/><path class="cls-15" d="M77.46,108.63a121.05,121.05,0,0,1-15.15-9.92c-2.47-1.84-5-3.83-6.4-6.55a6.48,6.48,0,0,1-.59-1.59c6.49-2.6,12.14-4.79,13.08-5.15a13.3,13.3,0,0,0-.17,8.12,28.68,28.68,0,0,0,3.64,7.67A60.54,60.54,0,0,0,77.46,108.63Z"/><path class="cls-16" d="M178.14,134.3c-.59-1.75-3.61-7.37-17.48-10.55S132,118,118.78,112.37a1.37,1.37,0,0,0,0,.17c-2.65-1.08-5.69-2.58-7.1-5.57a3.59,3.59,0,0,1,2.65-.92c2,0,3.94,1.49,5.73,2.34,2.16,1,4.37,1.93,6.61,2.75,5.06,1.87,10.29,3.3,15.51,4.67,3.71,1,7.52,2,11.18,2.84,7.34,1.59,16.93,4.31,22.9,9.82C177.17,129.34,177.94,132.12,178.14,134.3Z"/></g><path id="SeagullLighting" class="cls-17" d="M177.38,120.76c-2.72-3.36-5.58-6.84-9.17-9-7.92-4.66-18.82-4.29-27.36-6.14-5.52-1.19-10.93-4.28-16.06-7.12-2.7-1.49-4.78-5-2.75-6.39l0,0a91.43,91.43,0,0,0,26.78,11.09c13.91,3.41,16.58,3,16.58,3S174.31,107.53,177.38,120.76Z"/><g id="Eyes"><path d="M111.81,83.05c-.11-.09.15-1,.75-.4s4.24,7.85,4.24,7.85,0,1-.8.42C115.62,90.61,111.81,83.05,111.81,83.05Z"/><path d="M116.44,83.67c-.2-.13-.06-1,.81-.5.54.32,3.59,6.66,3.59,6.66a.44.44,0,0,1-.79.34C119.45,89.58,116.44,83.67,116.44,83.67Z"/><path d="M108.47,82.6a4.81,4.81,0,0,1-.45-2.5,3.52,3.52,0,0,1,1-2.31,23.2,23.2,0,0,0-.29,2.39C108.64,81,108.61,81.75,108.47,82.6Z"/><path d="M113.15,78.08a4.5,4.5,0,0,1,2.21.27,3.47,3.47,0,0,1,1,.59,1.35,1.35,0,0,1,.4.53.55.55,0,0,1-.14.61c.06-.43-.27-.53-.54-.69s-.62-.26-1-.38A11.37,11.37,0,0,1,113.15,78.08Z"/></g></g></g></svg>