<svg xmlns="http://www.w3.org/2000/svg" xmlns:xlink="http://www.w3.org/1999/xlink" viewBox="0 0 256 256"><defs><style>.cls-1{isolation:isolate;}.cls-2{fill:url(#linear-gradient);}.cls-3,.cls-7{mix-blend-mode:soft-light;}.cls-4{fill:none;stroke:#1a1a1a;stroke-miterlimit:10;}.cls-5{fill:#f2f2f2;}.cls-6{fill:#f7bb23;}.cls-7{fill:#fff;}.cls-8{fill:#98c6e5;}.cls-9{fill:#1a1a1a;}</style><linearGradient id="linear-gradient" x1="137.81" y1="143.9" x2="137.81" y2="229.17" gradientUnits="userSpaceOnUse"><stop offset="0" stop-color="#f2f2f2"/><stop offset="0.61" stop-color="#f2f2f2"/><stop offset="1" stop-color="#f2f2f2" stop-opacity="0"/></linearGradient></defs><title>goeland-icon</title><g class="cls-1"><g id="GameIcon"><g id="Body"><path id="BodyFill" class="cls-2" d="M44.72,198.94s-15.23,1.2-20.67,21.41c0,0,96.32,25.05,210.8-9.29a102.7,102.7,0,0,0-21.95-17.18s33.6-14.53,38.67-27.74c0,0-1.21-12.66-44-22.24L83.9,166.47Z"/><path class="cls-3" d="M117.38,192.48c2.4-.51,4.9-1.32,7.25-.62a8.63,8.63,0,0,0,3,.79,4.87,4.87,0,0,0,2-.7q13.26-7.06,25.76-15.41c-5.17.28-10.33-.68-15.42-1.64a17.17,17.17,0,0,1-4.84-1.41c-1.22-.63-2.45-1.59-3.82-1.37a4.78,4.78,0,0,0-1.76.81l-9.38,6c-5.22,3.36-10.6,6.86-14,12a1.46,1.46,0,0,0-.28.64C105.52,194.25,116,192.77,117.38,192.48Z"/><path class="cls-4" d="M169,176s-4.39,17.22,15,28.45"/><path class="cls-4" d="M176.27,174.44S229.11,198.5,237,214.36"/><path class="cls-4" d="M209.3,144.64s36.32,6.08,42.27,21.5c0,0-9.74,17.17-38.67,27.74"/><path class="cls-4" d="M23.46,223.17c3.74-21.58,21.26-24.23,21.26-24.23"/></g><path id="FaceFill" class="cls-5" d="M210.74,140.12c-4,12.11-4.18,14.75-6.16,18.72s-22.24,13.43-22.24,13.43S168.48,179.35,144,176c-66-9-88.6-35.92-92.81-41.79a4.77,4.77,0,0,1-.89-2.34L49.56,124a15.7,15.7,0,0,1,3.76-11.87A208.48,208.48,0,0,1,77.53,88.82c0-32.37,22.86-36.11,22.86-36.11A12.08,12.08,0,0,0,106,42.61l20.14-5.28c3.36,3.42,11.86-1.73,15,1.07,0,0,13.38-.65,20.27,1.05l.21,0,12.92-.19,25.93,27.41c-2.09,3.56,1,5.76-1.42,9.55,0,0,1.32,12.55.88,18.93a17.57,17.57,0,0,0,6,12.34C211.84,112.6,214.71,128,210.74,140.12Z"/><g id="Beak"><path class="cls-6" d="M170.54,134.65c-8.15,12.33-26.64,31.71-51.08,48s-28.4,34.13-28.4,34.13c-26.65,15-30.83,41.61-36.34,34.35-4.32-5.7-8.9-28.2-9.83-55-.25-7.36-.23-15,.15-22.77.67-13.64,4-22.74,7.9-28.77,6.34-9.83,14.12-11.52,14.12-11.52l16.73-31.27c17.39,6.17,40.07-1.32,40.07-1.32,12.11,11.89,39.2,11,39.2,11C161.73,123,170.54,134.65,170.54,134.65Z"/><path class="cls-3" d="M112.6,105.74a9.16,9.16,0,0,0,6.81-1.24c.43,2.33-1.39,4.41-3.07,6.08-.9.9-4.69,4.83-5.54,2.8-.25-.62,1.22-2.58,1.43-3.21A9.12,9.12,0,0,0,112.6,105.74Z"/><path class="cls-3" d="M115.72,182.4a93.42,93.42,0,0,1,12.85-12.14,65.78,65.78,0,0,0,6.81-5.62c1.94-2,3.53-4.28,5.35-6.38,6-6.87,14.16-11.35,22.34-15.35.65,1.38-.45,2.91-1.5,4A237.27,237.27,0,0,1,142.69,165a239.43,239.43,0,0,1-21,16.07c-2.07,1.41-4.15,2.79-6.26,4.13-.74.47-1.87,1.51-1.84.24C113.66,184.49,115.11,183.09,115.72,182.4Z"/><path class="cls-3" d="M156.09,132.48c-2,1-3.65,2.42-5.54,3.53-3.22,1.89-6.93,2.75-10.43,4.05-6.34,2.35-12.27,6.23-19,6.87-4.89.46-9.11.12-13.48,2.36-3,1.52-6,3.48-7.86,6.24L89.2,171.15c-.36.54-2.36,3.56-2.63,4.27l-6.38,17c1.8.61,3.38-1.3,4.33-2.94,3.57-6.19,9.36-10.29,12.92-16.48.83-1.44,7.56-5.6,8.7-6.82,1.29-1.38,8.24-3.41,9.91-4.3,4.68-2.5,2.47-1.71,7.37-3.74,4.19-1.74,6.51-3.59,10.57-5.61,7.07-3.52,12.38-5.41,19.6-8.59,3.57-1.57,6.52-3.14,10.13-4.62,1.55-.65,7.53-5.3,3.11-7.1A13.26,13.26,0,0,0,156.09,132.48Z"/><path class="cls-7" d="M55.5,157.28c-.94,3.45-2.32,6.78-3.21,10.24-.58,2.28-.94,4.61-1.51,6.89-.79,3.2-2,6.31-2.72,9.52-.49,2.09-.79,4.22-1.08,6.34s-.63,4.5-.94,6.76a.59.59,0,0,1-.89-.06,1.47,1.47,0,0,1-.26-.8c-.25-7.36-.23-15,.15-22.77.67-13.64,4-22.74,7.9-28.77a1.22,1.22,0,0,0,.19.12,1.47,1.47,0,0,1,1.92.1,3.58,3.58,0,0,1,1,1.84A20.41,20.41,0,0,1,55.5,157.28Z"/><path class="cls-7" d="M46.24,208.47a125.1,125.1,0,0,0,7.21,31.59c2.41-.48,2.93-3.6,4.15-5.74a22.38,22.38,0,0,1,3.4-3.89,39.79,39.79,0,0,0,4.45-6.17c5-7.93,10-15.93,13.32-24.69a52.66,52.66,0,0,1,3-7.31A26.25,26.25,0,0,1,87.3,185c2.3-1.95,10.44-12.11,9.39-8.76a86.59,86.59,0,0,1-4.57,12.15c-4.13,8.4-10.68,15.32-15.92,23.07-5.74,8.49-9.87,17.93-14.28,27.18-1.24,2.58-2.72,5.36-5.37,6.42a3.75,3.75,0,0,1-2.31.23c-1.66-.44-2.49-2.26-3-3.88a77.73,77.73,0,0,1-4.09-27.27"/><path id="BeakOutline" class="cls-4" d="M83.79,101.84,67.06,133.11s-20.26,4.4-22,40.29,4.18,70.46,9.68,77.73,9.69-19.38,36.34-34.35c0,0,4-17.84,28.4-34.13s42.93-35.67,51.08-48"/><path class="cls-4" d="M45.92,208.85s3.74,24.66,7.7,31.93c0,0,22.22-27.72,25-41.2a16.57,16.57,0,0,1,2.51-6c4.13-5.95,12.84-18.62,16.11-24.28,4.34-7.53,51-26.46,69.08-32.63"/></g><path class="cls-8" d="M141.16,38.4c-7.3-1.08-40.77,14.31-40.77,14.31s0-.21,0-.59c0-1.55-.06-6,.07-11.66.28-12.12,1.32-29.89,5-37.24a10.28,10.28,0,0,1,.95-1.59s12.43,14.62,24.92,27.28C134.66,32.33,138,35.6,141.16,38.4Z"/><path class="cls-8" d="M229.68,11.32s-3,13-13,33.71c-3,6.11-6.53,12.89-10.82,20.21-1.86,3.16-3.84,6.42-6,9.77-.26.42-.53.84-.8,1.26a9.4,9.4,0,0,0-.16-1.89,12.11,12.11,0,0,0-.62-2.32c-5.38-14.84-37-32.09-37-32.09l.14-.52.21,0L172.41,35Z"/><path class="cls-3" d="M55.22,122.14c3.16,2.08,6.46,4.33,8.08,7.74a4.72,4.72,0,0,1,.51,3.11c-.35,1.39-1.6,2.33-2.77,3.16l-3.21,2.27a3.09,3.09,0,0,1-2.08.8c-1.24-.17-1.75-1.62-2.48-2.63S51.53,135,50.87,134a8.58,8.58,0,0,1-1-4.82c0-2.36-.74-6,0-8.26C50.77,118.12,53.63,121.08,55.22,122.14Z"/><path class="cls-3" d="M193.41,162.4c3.21-1.3,6.44-2.78,9.9-3a119.37,119.37,0,0,1-19.93,11.84A59.6,59.6,0,0,1,161,176.8a93.51,93.51,0,0,1-10.71-.48c-5.7-.47-11.48-.95-16.84-2.93.18.07,3.89-3.51,4.44-3.84,1.51-.9,2.48-.7,4.21-.45a92.53,92.53,0,0,0,12.55,1,98.59,98.59,0,0,0,25.18-3.17A107.15,107.15,0,0,0,193.41,162.4Z"/><g id="Eyes"><path class="cls-9" d="M108.67,74.87s-5.37,11.21-5,17.95c.22,3.58,2.54,4.54,5,1.43,2.67-3.44,4.8-14,4.84-18.61C113.58,69.26,109.4,73.31,108.67,74.87Z"/><path class="cls-9" d="M139.58,78.39S134.21,89,134.87,96.32s4.43,4.64,6.29,1.89,5.49-12,4.94-18.6S140.94,75.38,139.58,78.39Z"/><g id="EyebrowLeft"><path class="cls-9" d="M97.28,66.23a13.82,13.82,0,0,1,2-6.66,16.53,16.53,0,0,1,4.82-5.24,13.39,13.39,0,0,1,1.52-1,11,11,0,0,1,1.61-.8c.56-.22,1.11-.44,1.67-.64s1.15-.29,1.73-.42a17.9,17.9,0,0,1,3.49-.36,20.94,20.94,0,0,1,3.45.38c-1.1.45-2.18.7-3.22,1.07l-1.54.56c-.25.1-.51.17-.76.27l-.73.34-1.46.62c-.46.26-.93.5-1.39.74a12.06,12.06,0,0,0-1.34.79,12.49,12.49,0,0,0-1.29.85,26.55,26.55,0,0,0-4.65,4.17A38,38,0,0,0,97.28,66.23Z"/></g><g id="EyebrowRight"><path class="cls-9" d="M150.61,56.16a15.57,15.57,0,0,1,9.79.64,16.4,16.4,0,0,1,7.83,6.46,23.23,23.23,0,0,1,1.28,2.22c.32.78.7,1.54,1,2.34a25.17,25.17,0,0,1,1.13,4.86,29.38,29.38,0,0,1-.33,9.73c-.6-3.18-1.14-6.29-2-9.26a30.22,30.22,0,0,0-3.57-8.25,18.23,18.23,0,0,0-6.32-6A23.58,23.58,0,0,0,150.61,56.16Z"/></g></g><path id="FaceOutline" class="cls-4" d="M56.67,140.47a50.26,50.26,0,0,1-5.45-6.25,4.77,4.77,0,0,1-.89-2.34L49.56,124a15.7,15.7,0,0,1,3.76-11.87A208.48,208.48,0,0,1,77.53,88.82c0-32.37,22.86-36.11,22.86-36.11s-.1-5.16.06-12.25c.3-13.11,1.5-32.83,5.93-38.83,0,0,12.43,14.62,24.92,27.28,3.36,3.42,6.73,6.69,9.86,9.49,0,0,13.38-.65,20.27,1.05l.21,0L172.41,35l57.27-23.72s-5,21.78-23.84,53.92q-3.14,5.34-6.77,11s1.32,12.55.88,18.93a17.57,17.57,0,0,0,6,12.34c5.94,5.06,8.81,20.47,4.84,32.58s-4.18,14.75-6.16,18.72-22.24,13.43-22.24,13.43S168.48,179.35,144,176c0,0-8.44-1.2-11-3"/><path class="cls-3" d="M216.66,45c-3,6.11-6.53,12.89-10.82,20.21-1.86,3.16-3.84,6.42-6,9.77a.78.78,0,0,1-.22,0,1.33,1.33,0,0,1-.74-.6,3.38,3.38,0,0,1-.39-1,11.64,11.64,0,0,1-.23-1.29,14.5,14.5,0,0,1,2-9.5c2-3.3,5.3-5.67,7.36-8.93C209.27,51,212.54,44.68,216.66,45Z"/></g></g></svg>