<svg xmlns="http://www.w3.org/2000/svg" viewBox="0 0 960 540"><defs><style>.cls-1{fill:#00a99d;}.cls-2{fill:#fff;stroke:#000;stroke-miterlimit:10;stroke-width:1.39px;}</style></defs><title>maarti-games</title><g id="Subtitle"><g id="Lines"><path class="cls-1" d="M726.19,446.81c-19.28,1.7-35-12.41-35-32.14v-7.46a14.33,14.33,0,0,1,16-14.59,1405.08,1405.08,0,0,0,213.7,1.45c19.29-1.7,35,12.41,35,32.14v7.46a14.33,14.33,0,0,1-16,14.59A1405.08,1405.08,0,0,0,726.19,446.81Z"/><path class="cls-1" d="M19.11,448.26a14.33,14.33,0,0,1-16-14.59v-7.46c0-19.73,15.66-33.84,35-32.14a1405.08,1405.08,0,0,0,213.7-1.45,14.33,14.33,0,0,1,16,14.59v7.46c0,19.73-15.67,33.84-34.95,32.14A1405.08,1405.08,0,0,0,19.11,448.26Z"/><path class="cls-1" d="M344.15,339.85a44.79,44.79,0,0,0-31,12.37l-.46.45c-10.09,10.4-15.14,24.34-15,41.38l.29,43.36c-.26,6.79.55,22.69,12.12,34.52,7.48,7.78,18.68,12.24,30.74,12.24a46.2,46.2,0,0,0,23.58-6.29,15.94,15.94,0,0,0,10.56,4.5l21.09.72h.55a16,16,0,0,0,12.76-6.36,16,16,0,0,0,12.76,6.36h.66l21.37-.86a16.3,16.3,0,0,0,4.46-.84,15.89,15.89,0,0,0,2.93.27h.54l21.24-.72A16,16,0,0,0,488,470c.26,0,.52,0,.79,0H489a16,16,0,0,0,5.22-.87A16,16,0,0,0,509.46,481l21.31.28a16.14,16.14,0,0,0,5-.81,16,16,0,0,0,6.2,1.24h42.9a15.91,15.91,0,0,0,11.74-5.16,42.17,42.17,0,0,0,23.73,7.23h0c18.11,0,34-11.13,39.5-27.69,2.86-8.26,3.74-17.88,2.63-28.61l-.06-.55A38.09,38.09,0,0,0,654,408.08a15.58,15.58,0,0,0,3.67-2.55,16,16,0,0,0,5.12-11.16c.75-21.34-5.06-37.16-17.28-47l-.21-.17a42.27,42.27,0,0,0-19.46-8.5l8.88-.36a16,16,0,0,0,5.76,1.07H641l65.26-1.81a15.89,15.89,0,0,0,6.25,1.41l68.83,1.41h.33a16,16,0,0,0,12.25-5.7,16,16,0,0,0,4.69.77l68.73.94a16,16,0,0,0,16-15.7l4.42-237a16,16,0,0,0-5.62-12.48l-10.84-9.49a15.92,15.92,0,0,0-10.35-4.08l-68.83-1.41h-.32a16.09,16.09,0,0,0-5.88,1.12H683.14a16,16,0,0,0-15.86,13.88c-22.51-15-49.19-18.34-68.45-18.34a156.13,156.13,0,0,0-24,1.76l-21,3.18A15.92,15.92,0,0,0,546.38,56H454.7A16,16,0,0,0,439,68.87l-3.23,16.2-.51-5a16,16,0,0,0-5.54-10.53l-10.84-9.48A15.91,15.91,0,0,0,408.21,56H316.52a16,16,0,0,0-15.69,12.87l-10.95,55a236.69,236.69,0,0,0-12-23.74c-3.75-6.45-9-14.72-16.75-21.56l-4.39-3.83-.33-.29-.62-.55.09.08-1.31-1.14-4.33-3.79A51.54,51.54,0,0,0,227.52,57a48.45,48.45,0,0,0-9.5-1.28c-.41-.68-.84-1.35-1.27-2a68.38,68.38,0,0,0-12.92-14.89l-10.19-8.91c-.09-.09-.59-.52-.75-.66a46.9,46.9,0,0,0-22.74-10.89l-.78-.12L150.49,5.67a16,16,0,0,0-24.78,11.9l-2.52,28A116.07,116.07,0,0,0,118.89,60a55.07,55.07,0,0,0-8.24,2.2C94.13,68,85.73,79.91,79.59,88.59,47.86,133.48,35.65,207.75,34.37,216.07c-.25,1.57-5.84,38.88,3.09,82.39,1.28,6.27,3.95,19.26,14.14,27.84l10.88,9.52a30.79,30.79,0,0,0,19.29,7.46l1,0c24.31,0,31.26-22.65,34.24-32.32,9.84-32.05,10.16-33.1,10.53-34.57.71-2.83,1.46-5.53,2.23-8.11.66,19.11,1.93,29.48,4.78,40.31,4,15.24,9.53,36.13,27.25,37l.93,0h0c6.11,0,11.37-2.37,16-7.36,4.2,4.57,9.26,7.37,15.61,7.37.58,0,1.16,0,1.74-.08,18-1.65,22.61-24.88,25.1-37.36a269.38,269.38,0,0,0,4.08-28.64c.14-2.36.24-4.76.24-4.76,0-1,.07-2,.1-3.24,3.38,11.41,5.88,20.8,7.46,28.09l0,.25c1.35,6.2,4.14,19.08,13.74,27.6L257.75,337a30.82,30.82,0,0,0,20.38,8h.65a30.82,30.82,0,0,0,19.54-6.79Z"/><g id="RightLine"><path d="M939.86,433.67A1236.39,1236.39,0,0,0,726.21,432c-10.48,1.07-19-6.59-19-17.36v-7.46a1236.39,1236.39,0,0,0,213.65,1.64c10.48-1.07,19,6.59,19,17.36Z"/></g><g id="LeftLine"><path d="M232.79,432a1236.39,1236.39,0,0,0-213.65,1.64v-7.46c0-10.77,8.49-18.43,19-17.36a1236.39,1236.39,0,0,0,213.65-1.64v7.46C251.76,425.44,243.27,433.1,232.79,432Z"/></g></g><g id="Games"><path d="M335.08,388.35c-.14,1.72-.29,3.58-.29,5.59l.43,42.32c-.43,6,.15,11.34,4.74,10.62h1.43c5.17.57,4.3-2.87,4.59-7.46l.29-4.59h-4.88V413.88h26.83l-1.29,31.57c-.43,8.32-4,13.34-7.32,16.21-9.47,8.61-28.55,9-38-.86-7.89-8-7.74-20.09-7.6-23.1l-.29-43.76c-.14-16.35,5.74-25.25,10.48-30.13a28.74,28.74,0,0,1,22.09-7.89c13.48.86,23,12.2,23,26l.15,17.65-21.09.14-.15-11.05C348.13,373.86,337.09,373,335.08,388.35Z"/><path d="M418.58,430.81l-5-48.49-9.47,48.49Zm13.63-73.88,11.33,109.32-21.38.86-1.57-15.21H399.78l-3.15,15.21-21.09-.72,21.8-109.46Z"/><path d="M508.53,357.93H532.2l-1.43,107.31L509.68,465l.86-59.4L489,454.05l-17.65-43.18L472.81,465l-21.24.71-2.72-107.74h23.24l17.65,42.75Z"/><path d="M561.76,377.44l.43,23.82h18.36v21.09H562.48l.28,22.23h22.1v21.09H542l-1.43-110,44.76,1.57-.72,21.09Z"/><path d="M613.41,419.19c-8.32-8-18.94-15.06-20.52-26.4-.86-8.32-.28-15.63,1.87-21.8,5.31-16.07,26.4-22.38,40.74-11.19,8.18,6.6,11.91,17.79,11.34,34l-21.24-.86c.58-10.48-1.58-15.78-3.58-17.5-1.3-1.15-4-1-5.31-.58-3.59,1.15-2.87,12.91-2.58,15.49.28,3.74,4.73,6.6,11.62,12.92h.14c8.32,8,19.08,14.49,20.66,25.82.86,8.32.29,15.64-1.87,21.81-5.3,16.07-26.39,22.38-40.74,11.19-8.18-6.6-11.91-17.79-11.33-34l21.23.86c-.57,10.47,1.58,15.78,3.58,17.5,1.3,1.15,4,1,5.31.57,3.59-1.14,2.87-12.91,2.59-15.49C624.89,428.09,620,424.79,613.41,419.19Z"/></g></g><g id="Maarti"><g id="MaartiOutline"><path d="M162.61,329.6c7.93.37,14.81-25.34,15.73-28.89,7.83,24.07,13,29.19,16.31,28.89,9.62-.89,14.47-47.62,14.67-51,.13-2.2.22-4.45.22-4.45.05-1.37.1-3,.13-4.81.19-10.47.08-21.08-.3-31.56,2.08-5.79,3.92-11.66,5.5-17.5,1.82-6.78,3.11-11.56,4-16.13,5.33,11.16,7.56,17.52,7.56,17.52,11.32,33.59,18.81,58.69,22.26,74.6l.05.22c1.11,5.1,3.05,14,8.78,19.08l.31.27.31.27.31.27.31.27.31.27.31.27.31.27.31.27a4,4,0,0,0,.31.27l.31.28.31.27.31.27.3.27.32.27.3.27.31.27.31.27.31.27.31.27c.1.1.21.18.31.27s.21.18.31.27.21.18.31.27l.31.28.31.27.31.27.31.27.31.27.31.27.31.27.31.27.31.27a4,4,0,0,0,.31.27,4191431244727.61,4191431244727.61,0,0,0,.62.54l.31.28a14.84,14.84,0,0,0,10.07,4h.31c6,0,10.11-2.92,13-7L349,324,355.17,294h6.37l2.1,20.29h.28l0,.28h.28l0,.28h.28l0,.28h.28l0,.28h.28l0,.28h.28l0,.29.28,0,0,.29h.28l0,.28h.28l0,.28h.28l0,.28H367l0,.28h.28l0,.28h.28l0,.28H368l0,.28h.28l0,.28h.28l0,.28h.29l0,.28h.28l0,.29.28,0,0,.29h.28l0,.28h.28l0,.28h.28l0,.28h.28l0,.28H371l0,.28h.28l0,.28h.28l0,.28H372l0,.28h.28l0,.28h.28l0,.29.28,0,0,.29.28,0,0,.29h.28l0,.28h.28l0,.28h.28l0,.28h.28l0,.28h.28l0,.28,53.11-2.14,59.23,2L493.34,294h6.37l2.11,20.29h.28l0,.28h.28l0,.28h.28l0,.28H503l0,.28h.29l0,.28h.28l0,.29.28,0,0,.29h.28l0,.28h.28l0,.28h.28l0,.28h.28l0,.28h.28l0,.28h.28l0,.28h.28l0,.28h.28l0,.28h.28l0,.28h.28l0,.28h.28l0,.29.28,0,0,.29H508l0,.28h.28l0,.28h.28l0,.28h.28l0,.28h.28l0,.28h.28l0,.28h.28l0,.28h.28l0,.28h.28l0,.28h.28l0,.29.28,0,0,.29.28,0,0,.29h.28l0,.28H512l0,.28h.28l0,.28h.28l0,.28h.28l0,.28,54.14-2.18V322h.29l0,.29.29,0v.29l.3,0v.29h.3v.28h.3v.28h.3v.28h.3v.28h.3v.28h.3v.28h.3v.28h.3v.28L639,322.13v-.37h0V322h.31v.28h.31v.28h.31v.28h.31v.28h.31v.28l70.74-2v.2h.32v.26h.32v.26h.32v.27h.32v.27h.32V323l68.83,1.4,5-172.72h3.72l-2.73,158H788V310h.32v.26h.32v.26h.32v.26h.31v.26h.31v.27h.31v.27h.31v.27h.31v.27h.31v.27h.31v.27h.31V313h.31v.26H792v.26h.31v.26h.31V314h.31v.26h.32v.27h.32v.27h.32v.27h.32v.27h.32v.27h.32v.27h.32v.27h.32v.26h.31v.26H796V317h.31v.26h.31v.27h.31v.27h.31v.27h.31v.27h.31v.27h.31v.27h.31v.27h.31v.27l68.51.94,4.41-237h-.31v-.26h-.31v-.27h-.32v-.27h-.32v-.27h-.32v-.27h-.32V81.8h-.32v-.27h-.32v-.26h-.32V81h-.32v-.26h-.32v-.26H868v-.26h-.31v-.26h-.31v-.27h-.31v-.27h-.31v-.27h-.31v-.27h-.31v-.27h-.31v-.26h-.31V78h-.31v-.26h-.31v-.26h-.31V77.2h-.31v-.26H864v-.26h-.32v-.27h-.32v-.27H863v-.27h-.32v-.27h-.32V75.3h-.32V75h-.32v-.26h-.32v-.26h-.32v-.26h-.31V74h-.31v-.26l-68.82-1.41,0,1.12H683.14V106a70.37,70.37,0,0,0-5.63-5.56l-.28-.24-.31-.27-.31-.27-.31-.27-.3-.27-.32-.27c-.1-.1-.2-.18-.3-.27l-.31-.28c-.1-.09-.21-.17-.31-.27l-.31-.27-.31-.27-.31-.27-.31-.27-.31-.27-.31-.27-.31-.27-.31-.27-.31-.27c-.1-.1-.21-.18-.31-.27l-.31-.28c-.1-.09-.21-.17-.31-.27l-.31-.27-.31-.27-.31-.27-.31-.27-.31-.27-.3-.27-.31-.27-.31-.27-.31-.27c-.1-.1-.21-.18-.31-.27l-.31-.28-.31-.27-.2-.17c-1-.89-2-1.77-3-2.61C644,72.37,617.51,68.93,598.83,68.93a139.19,139.19,0,0,0-21.5,1.57l-27.85,4.22h-.28l0-.28h-.28l0-.27h-.28l0-.27h-.28l0-.27H548l0-.27h-.28l0-.27h-.28l0-.27H547l0-.27h-.28l0-.27h-.28l0-.27H454.7L430.79,192,419.35,81.75h-.28l0-.27h-.28l0-.27h-.28l0-.28h-.28l0-.27h-.28l0-.27h-.28l0-.27h-.28l0-.27h-.28l0-.27h-.29l0-.27h-.29l0-.27H416l0-.27h-.28l0-.27h-.28l0-.27h-.28l0-.27h-.28l0-.28h-.28l0-.27h-.28l0-.27h-.28l0-.27h-.28l0-.27h-.28l0-.27h-.28l0-.27h-.28l0-.27h-.28l0-.27H412l0-.27h-.28l0-.27h-.28l0-.27H411l0-.28h-.28l0-.27h-.28l0-.27h-.28l0-.27h-.29l0-.27h-.29l0-.27h-.29l0-.27h-.28l0-.27h-.28l0-.27h-.28l0-.27H316.52L293.71,186.52c-6-24.86-15.42-53.89-29.64-78.34-3.62-6.21-7.91-12.64-13.58-17.66l-.31-.27c-.1-.1-.21-.18-.31-.27l-.31-.28c-.1-.09-.21-.17-.31-.27l-.31-.27-.31-.27-.31-.27-.31-.27-.31-.27-.31-.27-.31-.27-.31-.27-.3-.27-.32-.27-.3-.28-.31-.27-.31-.27-.31-.27-.31-.27-.31-.27-.31-.27-.31-.27-.31-.27-.31-.27-.31-.27c-.1-.1-.21-.18-.31-.27l-.31-.28-.31-.27-.31-.27-.31-.27-.31-.27-.31-.27-.31-.27-.31-.27-.31-.27a35.5,35.5,0,0,0-15.81-8.5,32.94,32.94,0,0,0-7.59-.89,35.47,35.47,0,0,0-7.5.84,62.92,62.92,0,0,0-5.39-10.06,51.68,51.68,0,0,0-10-11.52l-.3-.27-.31-.27-.31-.27-.31-.27-.31-.27-.31-.28a4,4,0,0,1-.31-.27l-.31-.27-.31-.27-.31-.27-.31-.27-.31-.27-.31-.27a4,4,0,0,0-.31-.27,4,4,0,0,0-.31-.27,4,4,0,0,0-.31-.27,4,4,0,0,0-.31-.27l-.31-.28-.31-.27-.31-.27-.31-.27-.3-.27-.31-.27-.31-.27-.31-.27-.31-.27L185,43.6l-.31-.27-.31-.27-.31-.28a4,4,0,0,1-.31-.27l-.31-.27-.31-.27-.31-.27-.31-.27a31.11,31.11,0,0,0-15.08-7.33,29.66,29.66,0,0,0-3.66-.38L141.64,19l-2.71,30.24a99.15,99.15,0,0,0-4.8,15.91c-.67,3.17-1.2,6.4-1.56,9.65A50.65,50.65,0,0,0,116,77.26C104.26,81.41,98.1,90.13,92.65,97.83c-30.11,42.61-42,117.52-42.47,120.69-.23,1.45-5.41,36,3,76.72,1,4.7,2.86,13.95,8.91,18.93l.31.28.31.27L63,315l.3.27.32.27.3.27.31.27.31.27.31.27.31.27.31.27.31.27c.11.09.2.19.31.27l.31.28.31.27.31.27.31.27.31.27.31.27.31.27.31.27.31.27a4191431244751.19,4191431244751.19,0,0,1,.62.54l.31.28.31.27.3.27.32.27.3.27.31.27.31.27.31.27.31.27.31.27.31.27a14.67,14.67,0,0,0,9.45,3.64h.5c12.48,0,16.22-12.15,18.94-21,9-29.22,10-32.69,10.32-33.78a232.56,232.56,0,0,1,12.65-36.59,221.71,221.71,0,0,1,14.76-28.24c.42,1.48.86,3.05,1.35,4.76,1.38,4.84,2.92,9.72,4.6,14.53-.21,13.67-.05,25.14.16,33.65.6,24.33,1.9,34.14,4.47,43.91S156.61,329.31,162.61,329.6Zm531.66-90.78a68.49,68.49,0,0,0-15.38-24.19,93.77,93.77,0,0,0,7.09-9.1,86.43,86.43,0,0,0,15.54-52.94l0-.39c0-.18,0-.35,0-.53h5.19l-3.67,119A211.83,211.83,0,0,0,694.27,238.82Z"/></g><g id="MaartiWhite"><path class="cls-2" d="M240.89,105.44c-5.2-8.93-11.09-17.18-20.25-19.34-12.4-2.93-20.27,7.81-27.94,3C186,84.88,190.63,75.7,180.55,60.3c-6.59-10.08-12.39-12-15.38-12.46a15.8,15.8,0,0,0-5.27,0q-3.22-2.16-6.47-4.3l-.81,9a85.81,85.81,0,0,0-6.48,26.65,9.5,9.5,0,0,1-1.22,6c-3.86,5.91-14.16,1.57-24.29,5.16-7.41,2.61-11.57,8.36-16.6,15.47C75.45,146.29,63.94,220.65,63.94,220.65a225.13,225.13,0,0,0,2.84,71.79C69,303.09,71,303.6,71.63,303.62c2.17.07,4-5.64,5.67-11.18,6.61-21.49,9.91-32.24,10.13-33.1a246.39,246.39,0,0,1,13.36-38.69c5.71-13.27,10.57-21.43,17-32.24,14.45-24.26,19-25.49,21.46-24.93,3.29.74,5.37,5.29,6.89,8.59,2.25,4.93,2,8.09,2.83,14.62.82,6.32,2.3,11.52,5.27,21.92,1.18,4.18,2.9,9.78,5.26,16.34a287.43,287.43,0,0,0,5.26,74.8,114.47,114.47,0,0,0,6.48-33.53h3.24a62,62,0,0,0,1.62,15.9,60.24,60.24,0,0,0,6.48,16.34c1-12.21,1.78-25.28,2-39.12.21-11.75,0-22.95-.4-33.53,2.84-7.62,4.78-14.11,6.07-18.92,2.71-10,4.06-15.07,4.86-21.49.63-5,.52-7.11,2-10.32,1.77-3.76,6-9.65,10.93-9.88,2.67-.13,7.4,1.32,19.43,24.93,8.77,17.19,12.15,27.08,12.15,27.08,13.5,40.06,19.74,62.58,22.68,76.09.66,3.07,2.53,12,5.26,12,.88,0,3.24-.86,6.48-15a196.72,196.72,0,0,0,4.05-60.61C276.85,219,268.37,152.67,240.89,105.44ZM165.6,57.05c-.91.37-2-.35-2.48-1.62s-.09-2.59.82-3,2,.35,2.48,1.62S166.51,56.68,165.6,57.05Z"/><path class="cls-2" d="M328,85.93,285.61,298.48l40.95,1.4,6.13-29.53h40.39l3.07,29.53,41.51-1.68-22-212.27Zm13.1,143.46,18.38-94.16,9.75,94.16Z"/><path class="cls-2" d="M466.13,85.93,423.78,298.48l41,1.4,6.13-29.53h40.4l3.06,29.53,41.51-1.68-22-212.27Zm13.09,143.46,18.39-94.16,9.75,94.16Z"/><path class="cls-2" d="M647.2,205.44a85.77,85.77,0,0,0,16.16-17.55,72.34,72.34,0,0,0,13.09-44.58c-1.11-17.83-8.08-33.15-21.17-43.73C628,77.29,584.52,83.42,579.51,84.25L561.12,87l11.42,213.67L613.22,299l-3.35-67.69c6.13,2.22,18.39,7.8,21.73,17,8.08,20.61,11.7,50.42,11.7,51l40.12-1.12c-.28-1.39-3.62-38.16-13.37-64.35C665.87,222.43,657.79,213.24,647.2,205.44Zm-39.56-23.13-3.34-58.5c11.14.56,20.06,3.07,25.63,7.25,2.23,2.5,5.29,5.57,5.29,13.65C636.34,163.93,620.74,175.63,607.64,182.31Z"/><polygon class="cls-2" points="697.07 127.99 721.3 127.99 716.01 299.6 756.96 300.43 761.98 127.99 787.05 127.99 787.05 87.32 697.07 87.32 697.07 127.99"/><polygon class="cls-2" points="805.43 86.48 801.81 295.98 842.49 296.53 846.38 87.32 805.43 86.48"/></g></g></svg>